<svg version="1.1" id="Layer_1" xmlns="http://www.w3.org/2000/svg" xmlns:xlink="http://www.w3.org/1999/xlink" x="0" y="0" viewBox="0 0 195 269" style="enable-background:new 0 0 195 269" xml:space="preserve"><style>.st3{fill:#2b2b2b;stroke:#212121;stroke-width:.811}.st7{fill:#d9d9d9}.st9{fill-opacity:.15}.st10,.st9{fill:#5ea6f7}.st14{fill:#5e5e5e;stroke:#363636;stroke-width:.811}.st15{fill-rule:evenodd;clip-rule:evenodd;fill:#d9d9d9}.st18{fill:#a6a6a6}.st23{fill:#5e5e5e;stroke:#212121;stroke-width:.811}</style><defs><path id="SVGID_1_" d="M3 0h188.5c1.7 0 3 1.3 3 3v262c0 1.7-1.3 3-3 3H3c-1.7 0-3-1.3-3-3V3c0-1.7 1.3-3 3-3z"/></defs><clipPath id="SVGID_00000018203011533281232670000008103063122341494939_"><use xlink:href="#SVGID_1_" style="overflow:visible"/></clipPath><g style="clip-path:url(#SVGID_00000018203011533281232670000008103063122341494939_)"><path d="M3 0h188.5c1.7 0 3 1.3 3 3v262c0 1.7-1.3 3-3 3H3c-1.7 0-3-1.3-3-3V3c0-1.7 1.3-3 3-3z" style="fill:#404040"/><defs><path id="SVGID_00000142142982938642454370000005237052817034574765_" d="M6.5 23h181.7v26H6.5z"/></defs><clipPath id="SVGID_00000136398706967248124350000007622592757479795354_"><use xlink:href="#SVGID_00000142142982938642454370000005237052817034574765_" style="overflow:visible"/></clipPath><path class="st3" d="M8.1 23.4h178.4c.7 0 1.2.5 1.2 1.2v22.7c0 .7-.5 1.2-1.2 1.2H8.1c-.7 0-1.2-.5-1.2-1.2V24.6c0-.6.5-1.2 1.2-1.2z" style="clip-path:url(#SVGID_00000136398706967248124350000007622592757479795354_)"/><path d="M9.7 28.2c0-1.1.9-2 2-2h71c1.1 0 2 .9 2 2v15.5c0 1.1-.9 2-2 2h-71c-1.1 0-2-.9-2-2V28.2z" style="fill:#1d76e1"/><path d="M17.3 39.5V33h.7v5.8h3v.7h-3.7zm6.3.1c-.3 0-.6-.1-.8-.2-.3-.1-.5-.3-.6-.5-.1-.2-.2-.5-.2-.8 0-.3.1-.5.2-.7.1-.2.3-.3.4-.4.2-.1.4-.2.6-.2.2-.1.4-.1.7-.1.3 0 .5-.1.7-.1.2 0 .3-.1.4-.1.1 0 .1-.1.1-.3 0-.3-.1-.6-.3-.7-.2-.2-.4-.3-.8-.3s-.6.1-.8.2c-.2.2-.3.3-.4.5l-.7-.3c.1-.3.3-.5.5-.7.2-.2.4-.3.7-.3.3-.1.5-.1.7-.1.2 0 .3 0 .5.1.2 0 .4.1.6.2.2.1.4.3.5.5.1.2.2.5.2.9v3.2h-.7v-.7c-.1.1-.1.2-.3.3-.1.1-.3.2-.5.3-.2.3-.4.3-.7.3zm.1-.7c.3 0 .5-.1.7-.2.2-.1.4-.3.5-.4.1-.2.2-.4.2-.6V37s-.1.1-.2.1-.2.1-.4.1c-.1 0-.3 0-.4.1h-.3c-.2 0-.4.1-.5.1-.2.1-.3.1-.4.3-.1.1-.2.3-.2.4 0 .3.1.5.3.6.2.2.4.2.7.2zm3.5.6v-4.9h.7v.7h.1c.1-.2.2-.4.5-.6.2-.1.5-.2.8-.2h.4v.8h-.5c-.2 0-.4 0-.6.1-.2.1-.3.2-.4.4-.1.2-.2.4-.2.6v3.1h-.8zm5.1 1.9c-.4 0-.7 0-.9-.1-.3-.1-.5-.2-.6-.4-.2-.1-.3-.3-.4-.5l.6-.4.3.3c.1.1.2.2.4.3.2.1.4.1.7.1.4 0 .7-.1 1-.3.3-.2.4-.5.4-.9v-1h-.1c-.1.1-.1.2-.2.3-.1.1-.2.2-.4.3-.2.1-.4.1-.8.1s-.7-.1-1.1-.3c-.3-.2-.6-.5-.7-.8-.2-.4-.3-.8-.3-1.3s.1-.9.3-1.3c.2-.4.4-.7.7-.9.3-.2.7-.3 1.1-.3.3 0 .6.1.8.2.2.1.3.2.4.4.1.1.2.2.2.3h.1v-.8h.7v5c0 .4-.1.8-.3 1-.2.3-.4.5-.8.6-.3.4-.7.4-1.1.4zm0-2.7c.3 0 .6-.1.8-.2.2-.1.4-.3.5-.6.1-.3.2-.6.2-.9 0-.4-.1-.7-.2-.9-.1-.3-.3-.5-.5-.6-.2-.2-.5-.2-.8-.2-.3 0-.6.1-.8.2-.2.2-.4.4-.5.6-.1.3-.2.6-.2.9 0 .3.1.6.2.9.1.3.3.5.5.6.2.2.5.2.8.2zm5.5.9c-.5 0-.9-.1-1.2-.3-.3-.2-.6-.5-.8-.9-.2-.4-.3-.8-.3-1.3s.1-.9.3-1.3c.2-.4.4-.7.8-.9.3-.2.7-.3 1.2-.3.3 0 .5 0 .8.1.2.1.5.2.7.4.2.2.4.4.5.7.1.3.2.7.2 1.1v.3h-3.8v-.6h3c0-.3-.1-.5-.2-.7-.1-.2-.3-.4-.5-.5-.2-.1-.4-.2-.7-.2-.3 0-.6.1-.8.2-.2.1-.4.3-.5.6-.1.2-.2.5-.2.8v.4c0 .4.1.7.2.9.1.3.3.4.5.6.2.1.5.2.8.2.2 0 .4 0 .5-.1.2-.1.3-.1.4-.3.1-.1.2-.3.3-.4l.7.2c-.1.2-.2.5-.4.6-.2.2-.4.3-.7.4-.1.2-.4.3-.8.3zm5.8-.1V33h.8v2.9h3.5V33h.8v6.5h-.8v-2.9h-3.5v2.9h-.8zm8.6.1c-.5 0-.9-.1-1.2-.3-.3-.2-.6-.5-.8-.9-.2-.4-.3-.8-.3-1.3s.1-.9.3-1.3c.2-.4.4-.7.8-.9.3-.2.7-.3 1.2-.3.3 0 .5 0 .8.1.2.1.5.2.7.4.2.2.4.4.5.7.1.3.2.7.2 1.1v.3h-3.8v-.6h3c0-.3-.1-.5-.2-.7-.1-.2-.3-.4-.5-.5-.2-.1-.4-.2-.7-.2-.3 0-.6.1-.8.2-.2.1-.4.3-.5.6-.1.2-.2.5-.2.8v.4c0 .4.1.7.2.9.1.3.3.4.5.6.2.1.5.2.8.2.2 0 .4 0 .5-.1.2-.1.3-.1.4-.3.1-.1.2-.3.3-.4l.7.2c-.1.2-.2.5-.4.6-.2.2-.4.3-.7.4-.2.2-.5.3-.8.3zm4.5 0c-.3 0-.6-.1-.8-.2-.3-.1-.5-.3-.6-.5-.1-.2-.2-.5-.2-.8 0-.3.1-.5.2-.7.1-.2.3-.3.4-.4.2-.1.4-.2.6-.2.2-.1.4-.1.7-.1.3 0 .5-.1.7-.1.2 0 .3-.1.4-.1.1 0 .1-.1.1-.3 0-.3-.1-.6-.3-.7-.2-.2-.4-.3-.8-.3s-.6.1-.8.2c-.2.2-.3.3-.4.5l-.7-.3c.1-.3.3-.5.5-.7.2-.2.4-.3.7-.3.3-.1.5-.1.7-.1.2 0 .3 0 .5.1.2 0 .4.1.6.2.2.1.4.3.5.5.1.2.2.5.2.9v3.2h-.7v-.7c-.1.1-.1.2-.3.3-.1.1-.3.2-.5.3s-.4.3-.7.3zm.1-.7c.3 0 .5-.1.7-.2.2-.1.4-.3.5-.4.1-.2.2-.4.2-.6V37s-.1.1-.2.1-.2.1-.4.1c-.1 0-.3 0-.4.1h-.3c-.2 0-.4.1-.5.1-.2.1-.3.1-.4.3-.1.1-.2.3-.2.4 0 .3.1.5.3.6.2.2.5.2.7.2zm5.4.7c-.4 0-.8-.1-1.1-.3-.3-.2-.6-.5-.7-.9-.2-.4-.3-.8-.3-1.3s.1-1 .3-1.3c.2-.4.4-.7.7-.9.3-.2.7-.3 1.1-.3.3 0 .6.1.8.2.2.1.3.2.4.4.1.1.2.2.2.3h.1V33h.7v6.5h-.7v-.7h-.1c-.1.1-.1.2-.2.3-.1.1-.2.3-.4.4-.3 0-.5.1-.8.1zm.1-.7c.3 0 .6-.1.8-.2.2-.2.4-.4.5-.7.1-.3.2-.6.2-1s-.1-.7-.2-1c-.1-.3-.3-.5-.5-.6-.2-.2-.5-.2-.8-.2-.3 0-.6.1-.8.2-.2.2-.4.4-.5.7-.1.3-.2.6-.2.9 0 .3.1.7.2.9.1.3.3.5.5.7.2.2.5.3.8.3zm3.6.6v-4.9h.7v4.9h-.7zm.3-5.7c-.1 0-.3 0-.4-.1-.1-.1-.2-.2-.2-.4s.1-.3.2-.4c.1-.1.2-.1.4-.1s.3 0 .4.1c.1.1.2.2.2.4s-.1.3-.2.4c-.1.1-.2.1-.4.1zm2.5 2.8v2.9H68v-4.9h.7v.8h.1c.1-.2.3-.4.5-.6.2-.2.5-.2.9-.2.3 0 .6.1.9.2.2.1.4.3.6.6.1.3.2.6.2 1v3.1h-.7v-3c0-.4-.1-.7-.3-.9-.2-.2-.5-.3-.8-.3-.2 0-.5.1-.6.2-.2.1-.3.3-.4.5-.3 0-.4.3-.4.6zm6.5 4.8c-.4 0-.7 0-.9-.1-.3-.1-.5-.2-.6-.4-.2-.1-.3-.3-.4-.5l.6-.4.3.3c.1.1.2.2.4.3.2.1.4.1.7.1.4 0 .7-.1 1-.3.3-.2.4-.5.4-.9v-1h-.1c-.1.1-.1.2-.2.3-.1.1-.2.2-.4.3-.2.1-.4.1-.8.1s-.7-.1-1.1-.3c-.3-.2-.6-.5-.7-.8-.3-.1-.4-.6-.4-1.1 0-.5.1-.9.3-1.3.2-.4.4-.7.7-.9.3-.2.7-.3 1.1-.3.3 0 .6.1.8.2.2.1.3.2.4.4.1.1.2.2.2.3h.1v-.8h.7v5c0 .4-.1.8-.3 1-.2.3-.4.5-.8.6-.3.2-.6.2-1 .2zm-.1-2.7c.3 0 .6-.1.8-.2.2-.1.4-.3.5-.6.1-.3.2-.6.2-.9 0-.4-.1-.7-.2-.9-.1-.3-.3-.5-.5-.6s-.5-.2-.8-.2c-.3 0-.6.1-.8.2-.2.2-.4.4-.5.6-.1.3-.2.6-.2.9 0 .3.1.6.2.9.1.3.3.5.5.6.3.2.5.2.8.2z" style="fill:#ebebeb"/><path d="M11.7 27.2h71v-2h-71v2zm72 1v15.5h2V28.2h-2zm-1 16.5h-71v2h71v-2zm-72-1V28.2h-2v15.5h2zm1 1c-.6 0-1-.4-1-1h-2c0 1.7 1.3 3 3 3v-2zm72-1c0 .6-.4 1-1 1v2c1.7 0 3-1.3 3-3h-2zm-1-16.5c.6 0 1 .4 1 1h2c0-1.7-1.3-3-3-3v2zm-71-2c-1.7 0-3 1.3-3 3h2c0-.6.4-1 1-1v-2z" style="fill-opacity:.1"/><path class="st7" d="M10.8 10.3c0-.3-.2-.6-.5-.7-.3-.2-.6-.3-1-.3-.3 0-.5 0-.8.1-.1.1-.3.2-.4.4-.1.2-.2.4-.2.6 0 .2 0 .3.1.4l.3.3c.1.1.3.1.4.2.1.1.3.1.4.1l.7.2c.2 0 .4.1.6.2l.6.3c.2.1.4.3.5.5.1.2.2.5.2.8 0 .4-.1.7-.3 1-.2.3-.4.5-.8.7-.3.2-.8.3-1.3.3s-.9-.1-1.2-.2c-.3-.1-.6-.4-.8-.6-.2-.4-.3-.8-.3-1.1h.8c0 .2.1.4.2.6.1.2.3.3.6.4.2.1.5.1.7.1.3 0 .6 0 .8-.1.2-.1.4-.2.6-.4.1-.2.2-.4.2-.6 0-.2-.1-.4-.2-.5-.1-.1-.3-.2-.5-.3s-.4-.2-.6-.2l-.8-.2c-.5-.1-.9-.4-1.2-.6-.3-.3-.4-.6-.4-1.1 0-.4.1-.7.3-1 .2-.4.4-.6.8-.8.3-.1.7-.2 1.1-.2.4 0 .8.1 1.1.2.3.1.6.4.8.6.2.3.3.6.3.9h-.8zm4.1 5c-.5 0-.9-.1-1.2-.3-.3-.2-.6-.5-.8-.9-.2-.4-.3-.8-.3-1.3s.1-.9.3-1.3c.2-.4.4-.7.8-.9.3-.2.7-.3 1.2-.3.3 0 .5 0 .8.1.2.1.5.2.7.4.2.2.4.4.5.7.1.3.2.7.2 1.1v.4h-3.8v-.6h3c0-.3-.1-.5-.2-.7-.1-.2-.3-.4-.5-.5-.2-.1-.4-.2-.7-.2-.3 0-.6.1-.8.2-.2.1-.4.3-.5.6-.1.2-.2.5-.2.8v.4c0 .4.1.7.2.9.1.3.3.4.5.6.2.1.5.2.8.2.2 0 .4 0 .5-.1.2-.1.3-.1.4-.3.1-.1.2-.3.3-.4l.7.2c-.1.2-.2.5-.4.6-.2.2-.4.3-.7.4-.2.1-.5.2-.8.2zm3.9-6.6v6.5h-.7V8.7h.7zm3.4 6.6c-.5 0-.9-.1-1.2-.3-.3-.2-.6-.5-.8-.9-.2-.4-.3-.8-.3-1.3s.1-.9.3-1.3c.2-.4.4-.7.8-.9.3-.2.7-.3 1.2-.3.3 0 .5 0 .8.1.2.1.5.2.7.4.2.2.4.4.5.7.1.3.2.7.2 1.1v.4h-3.8v-.6h3c0-.3-.1-.5-.2-.7-.1-.2-.3-.4-.5-.5-.2-.1-.4-.2-.7-.2-.3 0-.6.1-.8.2-.2.1-.4.3-.5.6-.1.2-.2.5-.2.8v.4c0 .4.1.7.2.9.1.3.3.4.5.6.2.1.5.2.8.2.2 0 .4 0 .5-.1.2-.1.3-.1.4-.3.1-.1.2-.3.3-.4l.7.2c-.1.2-.2.5-.4.6-.2.2-.4.3-.7.4-.2.1-.5.2-.8.2zm5.1 0c-.5 0-.8-.1-1.2-.3-.3-.2-.6-.5-.8-.9-.2-.4-.3-.8-.3-1.3s.1-.9.3-1.3c.2-.4.4-.7.8-.9.3-.2.7-.3 1.2-.3.3 0 .7.1.9.2.3.1.5.3.7.5.2.2.3.5.3.8h-.7c-.1-.2-.2-.4-.4-.6-.2-.2-.5-.3-.8-.3-.3 0-.5.1-.8.2-.2.1-.4.4-.5.6-.1.3-.2.6-.2 1s.1.7.2 1c.1.3.3.5.5.6.2.2.5.2.8.2.2 0 .4 0 .5-.1.2-.1.3-.2.4-.3.1-.1.2-.3.2-.5h.7c0 .3-.1.5-.3.8-.2.2-.4.4-.7.5-.1.3-.4.4-.8.4zm5.2-5v.6H30v-.6h2.5zm-1.8-1.2h.7v4.6c0 .2 0 .4.1.5.1.1.1.2.2.2s.2.1.3.1H32.3l.2.7c-.1 0-.1 0-.2.1H32c-.2 0-.4 0-.6-.1-.2-.1-.4-.2-.5-.4-.1-.2-.2-.4-.2-.7v-5zm4.8 6.2c-.4 0-.8-.1-1.2-.3-.3-.2-.6-.5-.8-.9-.2-.4-.3-.8-.3-1.3s.1-.9.3-1.3c.2-.4.4-.7.8-.9.3-.2.7-.3 1.2-.3.4 0 .8.1 1.2.3.3.2.6.5.8.9.2.4.3.8.3 1.3s-.1.9-.3 1.3c-.2.4-.4.7-.8.9-.4.2-.8.3-1.2.3zm0-.7c.3 0 .6-.1.8-.3.2-.2.4-.4.5-.7.1-.3.2-.6.2-.9 0-.3-.1-.6-.2-.9-.1-.3-.3-.5-.5-.7-.2-.2-.5-.3-.8-.3s-.6.1-.8.3c-.2.2-.4.4-.5.7-.1.3-.2.6-.2.9 0 .3.1.6.2.9.1.3.3.5.5.7.2.2.5.3.8.3zm3.4.6v-4.9h.7v.7h.1c.1-.2.2-.4.5-.6.2-.2.5-.2.8-.2h.4v.8h-.5c-.2 0-.4 0-.6.1-.2.1-.3.2-.4.4-.1.2-.2.4-.2.6v3.1h-.8z"/><path d="M0 60.4h194.6v22.7H0V60.4z" style="fill:#2b2b2b"/><path class="st7" d="M17.4 69.3v-1.1H23v1.1h-2.2v6h-1.3v-6h-2.1zm6.9 8h-.5c-.1 0-.3-.1-.3-.1l.3-1c.3.1.5.1.7 0 .2-.1.3-.2.5-.5l.1-.3-2-5.4h1.3l1.2 4h.1l1.2-4h1.3l-2.1 5.9c-.1.3-.2.5-.4.7-.2.2-.4.4-.6.5-.2.1-.5.2-.8.2zm4.8 0V70h1.2v.9h.1c.1-.1.2-.3.3-.4.1-.1.3-.3.5-.4.2-.1.5-.2.8-.2.4 0 .8.1 1.1.3.3.2.6.5.8.9.2.4.3.9.3 1.5s-.1 1.1-.3 1.5c-.2.4-.5.7-.8.9-.3.2-.7.3-1.1.3-.3 0-.6-.1-.8-.2-.2-.1-.4-.2-.5-.4-.1-.1-.2-.3-.3-.4h-.1v2.8h-1.2zm1.2-4.7c0 .3 0 .6.1.9.1.3.2.5.4.6.2.1.4.2.7.2.3 0 .5-.1.7-.2.2-.1.3-.4.4-.6.1-.3.1-.6.1-.9 0-.3 0-.6-.1-.9-.1-.3-.2-.5-.4-.6-.2-.1-.4-.2-.7-.2-.3 0-.5.1-.7.2-.2.1-.3.3-.4.6 0 .3-.1.6-.1.9zm7.2 2.8c-.5 0-1-.1-1.3-.3-.4-.2-.7-.5-.9-1-.2-.4-.3-.9-.3-1.4 0-.5.1-1 .3-1.4.2-.4.5-.7.9-1 .4-.2.8-.3 1.3-.3s1 .1 1.3.3c.4.2.7.5.9 1 .2.4.3.9.3 1.4 0 .5-.1 1-.3 1.4-.2.4-.5.7-.9 1-.3.2-.8.3-1.3.3zm0-1c.3 0 .5-.1.7-.2.2-.2.3-.4.4-.6.1-.3.1-.6.1-.9 0-.3 0-.6-.1-.9-.1-.3-.2-.5-.4-.6-.2-.2-.4-.2-.7-.2-.3 0-.5.1-.7.2-.2.2-.3.4-.4.6-.1.3-.1.6-.1.9 0 .3 0 .6.1.9.1.3.2.5.4.6.2.1.4.2.7.2zm5.9 3c-.4 0-.8-.1-1.2-.2-.3-.1-.6-.3-.8-.5-.2-.2-.3-.4-.4-.7l1.1-.3c.1.1.1.2.2.3.1.1.2.2.4.3.2.1.4.1.6.1.4 0 .6-.1.9-.3.2-.2.3-.4.3-.8v-1h-.1c-.1.1-.2.3-.3.4-.1.1-.3.2-.5.3-.2.1-.5.1-.8.1-.4 0-.8-.1-1.1-.3-.3-.2-.6-.5-.8-.9-.2-.4-.3-.9-.3-1.4 0-.6.1-1.1.3-1.5.2-.4.5-.7.8-.9.3-.2.7-.3 1.1-.3.3 0 .6.1.8.2.2.1.4.2.5.4.1.1.2.3.3.4h.1V70h1.2v5.4c0 .4-.1.8-.3 1.1-.2.3-.5.5-.9.7-.2.1-.6.2-1.1.2zm0-3.2c.3 0 .5-.1.7-.2.2-.1.3-.3.4-.6.1-.2.1-.5.1-.9 0-.3 0-.6-.1-.9-.1-.3-.2-.4-.4-.6-.2-.1-.4-.2-.7-.2-.3 0-.5.1-.7.2-.2.1-.3.3-.4.6-.1.3-.1.5-.1.9 0 .3 0 .6.1.9.1.2.2.4.4.6.2.2.5.2.7.2zm3.8 1.1V70h1.2v.9h.1c.1-.3.3-.5.5-.7.2-.2.5-.3.8-.3h.4v1.2h-.6c-.2 0-.4 0-.6.1-.2.1-.3.2-.4.4-.1.2-.2.4-.2.6v3.1h-1.2zm5.3.1c-.3 0-.6-.1-.9-.2-.3-.1-.5-.3-.6-.5-.2-.2-.2-.5-.2-.9 0-.3.1-.5.2-.7.1-.2.3-.4.5-.5l.6-.3c.2-.1.5-.1.7-.1.3 0 .6-.1.8-.1.2 0 .3-.1.4-.1.1-.1.1-.1.1-.3 0-.3-.1-.5-.2-.6-.2-.1-.4-.2-.7-.2-.3 0-.5.1-.7.2-.2.1-.3.3-.4.5l-1.2-.2c.1-.3.2-.6.5-.8.2-.2.5-.4.8-.5.3-.1.6-.2 1-.2.3 0 .5 0 .8.1.3.1.5.2.7.3.2.1.4.3.5.6.1.2.2.5.2.9v3.6h-1.2v-.7c-.1.1-.2.3-.3.4-.1.1-.3.2-.5.3h-.9zm.3-.9c.3 0 .5 0 .7-.1.2-.1.3-.2.4-.4.1-.2.2-.3.2-.5v-.6s-.1.1-.2.1-.2.1-.3.1c-.1 0-.2 0-.3.1H53c-.2 0-.4.1-.5.1-.1.1-.3.1-.3.2-.1.1-.1.2-.1.4s.1.4.3.5.1.1.4.1zm3.7 2.8V70h1.2v.9h.1c.1-.1.2-.3.3-.4.1-.1.3-.3.5-.4.2-.1.5-.2.8-.2.4 0 .8.1 1.1.3.3.2.6.5.8.9.2.4.3.9.3 1.5s-.1 1.1-.3 1.5c-.2.4-.5.7-.8.9-.3.2-.7.3-1.1.3-.3 0-.6-.1-.8-.2-.2-.1-.4-.2-.5-.4-.1-.1-.2-.3-.3-.4h-.1v2.8h-1.2zm1.3-4.7c0 .3 0 .6.1.9.1.3.2.5.4.6.2.1.4.2.7.2.3 0 .5-.1.7-.2.2-.1.3-.4.4-.6.1-.3.1-.6.1-.9 0-.3 0-.6-.1-.9-.1-.3-.2-.5-.4-.6-.2-.1-.4-.2-.7-.2-.3 0-.5.1-.7.2-.2.1-.3.3-.4.6-.1.3-.1.6-.1.9zm6.1-.4v3.1h-1.3v-7.1h1.2v2.7h.1c.1-.3.3-.5.6-.7.3-.2.6-.3 1-.3s.7.1 1 .2c.3.2.5.4.6.7.2.3.2.7.2 1.1v3.4H66v-3.2c0-.4-.1-.6-.3-.8-.1-.2-.4-.3-.7-.3-.2 0-.4 0-.6.1-.2.1-.3.2-.4.4-.1.2-.1.4-.1.7zm5.3 5.1h-.5c-.1 0-.3-.1-.3-.1l.3-1c.3.1.5.1.7 0 .2-.1.3-.2.5-.5l.1-.3-2-5.4h1.3l1.2 4h.1l1.2-4h1.3L71 75.9c-.1.3-.2.5-.4.7-.2.2-.4.4-.6.5-.2.1-.5.2-.8.2zM7.3 70.2h6.4l-3.2 3.2-3.2-3.2z"/><path class="st9" d="M8.9 92.1h19.5c.9 0 1.6.7 1.6 1.6v9.7c0 .9-.7 1.6-1.6 1.6H8.9c-.9 0-1.6-.7-1.6-1.6v-9.7c0-.9.7-1.6 1.6-1.6z"/><path class="st10" d="M9.7 102.1v-6.5h3.9v.7h-3.1v2.2h2.8v.7h-2.8v2.9h-.8zm6.8.1c-.4 0-.8-.1-1.2-.3-.3-.2-.6-.5-.8-.9-.2-.4-.3-.8-.3-1.3s.1-.9.3-1.3c.2-.4.4-.7.8-.9.3-.2.7-.3 1.2-.3.4 0 .8.1 1.2.3.3.2.6.5.8.9.2.4.3.8.3 1.3s-.1.9-.3 1.3c-.2.4-.4.7-.8.9-.4.1-.8.3-1.2.3zm0-.7c.3 0 .6-.1.8-.3.2-.2.4-.4.5-.7.1-.3.2-.6.2-.9 0-.3-.1-.6-.2-.9-.1-.3-.3-.5-.5-.7-.2-.2-.5-.3-.8-.3-.3 0-.6.1-.8.3-.2.2-.4.4-.5.7-.1.3-.2.6-.2.9 0 .3.1.6.2.9.1.3.3.5.5.7.2.2.4.3.8.3zm4.1-2.4v2.9h-.7v-4.9h.7v.8h.1c.1-.2.3-.4.5-.6.2-.2.5-.2.9-.2.3 0 .6.1.9.2.2.1.4.3.6.6.1.3.2.6.2 1v3.1h-.7v-3c0-.4-.1-.7-.3-.9-.2-.2-.5-.3-.8-.3-.2 0-.5.1-.6.2-.2.1-.3.3-.4.5-.4.1-.4.3-.4.6zm6.5-1.9v.6h-2.5v-.6h2.5zM25.4 96h.7v4.6c0 .2 0 .4.1.5.1.1.1.2.2.2h.6l.2.7c-.1 0-.1 0-.2.1h-.3c-.2 0-.4 0-.6-.1-.2-.1-.4-.2-.5-.4-.1-.2-.2-.4-.2-.7V96z"/><path class="st9" d="M8.9 118h30c.9 0 1.6.7 1.6 1.6v9.7c0 .9-.7 1.6-1.6 1.6h-30c-.9 0-1.6-.7-1.6-1.6v-9.7c0-.9.7-1.6 1.6-1.6z"/><path class="st10" d="m10.9 128-1.8-6.5h.8l1.4 5.3h.1l1.4-5.3h.9l1.4 5.3H15l1.4-5.3h.8l-1.8 6.5h-.8l-1.4-5.2h-.1l-1.4 5.2h-.8zm8.8.1c-.5 0-.9-.1-1.2-.3-.3-.2-.6-.5-.8-.9-.2-.4-.3-.8-.3-1.3s.1-.9.3-1.3c.2-.4.4-.7.8-.9.3-.2.7-.3 1.2-.3.3 0 .5 0 .8.1.2.1.5.2.7.4.2.2.4.4.5.7.1.3.2.7.2 1.1v.3h-3.8v-.6h3c0-.3-.1-.5-.2-.7-.1-.2-.3-.4-.5-.5-.2-.1-.4-.2-.7-.2-.3 0-.6.1-.8.2-.2.1-.4.3-.5.6-.1.2-.2.5-.2.8v.4c0 .4.1.7.2.9.1.3.3.4.5.6.2.1.5.2.8.2.2 0 .4 0 .5-.1.2-.1.3-.1.4-.3.1-.1.2-.3.3-.4l.7.2c-.1.2-.2.5-.4.6-.2.2-.4.3-.7.4-.2.3-.5.3-.8.3zm3.1-.1v-4.9h.7v4.9h-.7zm.4-5.7c-.1 0-.3 0-.4-.1-.1-.1-.2-.2-.2-.4 0-.1.1-.3.2-.4.1-.1.2-.1.4-.1s.3.1.4.1c.1.1.2.2.2.4 0 .1-.1.3-.2.4-.1.1-.3.1-.4.1zm3.7 7.6c-.4 0-.7 0-.9-.1-.3-.1-.5-.2-.6-.4-.2-.1-.3-.3-.4-.5l.6-.4.3.3c.1.1.2.2.4.3.2.1.4.1.7.1.4 0 .7-.1 1-.3.3-.2.4-.5.4-.9v-1h-.1c-.1.1-.1.2-.2.3-.1.1-.2.2-.4.3-.2.1-.4.1-.8.1s-.7-.1-1.1-.3c-.3-.2-.6-.5-.7-.8-.2-.4-.3-.8-.3-1.3s.1-.9.3-1.3c.2-.4.4-.7.7-.9.3-.2.7-.3 1.1-.3.3 0 .6.1.8.2.2.1.3.2.4.4.1.1.2.2.2.3h.1v-.8h.6v5c0 .4-.1.8-.3 1-.2.3-.4.5-.8.6-.3.4-.6.4-1 .4zm0-2.6c.3 0 .6-.1.8-.2.2-.1.4-.3.5-.6.1-.3.2-.6.2-.9 0-.4-.1-.7-.2-.9-.1-.3-.3-.5-.5-.6-.2-.2-.5-.2-.8-.2-.3 0-.6.1-.8.2-.2.2-.4.4-.5.6-.1.3-.2.6-.2.9 0 .3.1.6.2.9.1.3.3.5.5.6.2.1.5.2.8.2zm4.2-2.2v2.9h-.7v-6.5h.7v2.4h.1c.1-.3.3-.5.5-.6.2-.2.5-.2.9-.2.3 0 .6.1.9.2.2.1.4.3.6.6.1.3.2.6.2 1v3.1h-.7v-3c0-.4-.1-.7-.3-.9-.2-.2-.5-.3-.8-.3-.2 0-.5.1-.7.2-.2.1-.3.3-.5.5-.1.1-.2.3-.2.6zm6.7-2v.6h-2.5v-.6h2.5zM36 122h.7v4.6c0 .2 0 .4.1.5.1.1.1.2.2.2s.2.1.3.1H37.6l.2.7c-.1 0-.1 0-.2.1h-.3c-.2 0-.4 0-.6-.1-.2-.1-.4-.2-.5-.4-.1-.2-.2-.4-.2-.7v-5z"/><path class="st9" d="M8.9 144.8h17.8c.9 0 1.6.7 1.6 1.6v9.7c0 .9-.7 1.6-1.6 1.6H8.9c-.9 0-1.6-.7-1.6-1.6v-9.7c0-.9.7-1.6 1.6-1.6z"/><path class="st10" d="M13.3 149.9c0-.3-.2-.6-.5-.7-.3-.2-.6-.3-1-.3-.3 0-.5 0-.8.1-.2.1-.4.2-.5.4-.1.2-.2.3-.2.6 0 .2 0 .3.1.4l.3.3c.1.1.3.1.4.2.1.1.3.1.4.1l.7.2c.2 0 .4.1.6.2l.6.3c.2.1.4.3.5.5.1.2.2.5.2.8 0 .4-.1.7-.3.9-.2.3-.4.5-.8.7-.3.2-.8.2-1.3.2s-.9-.1-1.2-.2c-.3-.2-.6-.4-.8-.6-.2-.3-.3-.6-.3-.9h.8c0 .2.1.4.2.6.1.2.3.3.6.4.2.1.5.1.7.1.3 0 .6 0 .8-.1.2-.1.4-.2.6-.4.1-.2.2-.4.2-.6 0-.2-.1-.4-.2-.5-.1-.1-.3-.2-.5-.3-.2-.1-.4-.2-.6-.2l-.8-.2c-.5-.1-.9-.4-1.2-.6-.3-.3-.4-.6-.4-1.1 0-.4.1-.7.3-1 .2-.3.5-.5.8-.6.3-.2.7-.2 1.1-.2.4 0 .8.1 1.1.2.3.1.6.4.8.6.2.3.3.6.3.9h-.7zm2 4.9v-4.9h.7v4.9h-.7zm.4-5.7c-.1 0-.3 0-.4-.1-.1-.1-.2-.2-.2-.4 0-.1.1-.3.2-.4.1-.1.2-.1.4-.1.1 0 .3 0 .4.1.1.1.2.2.2.4 0 .1-.1.3-.2.4-.2 0-.3.1-.4.1zm1.6 5.7v-.6l2.8-3.5v-.1h-2.7v-.7H21v.6l-2.7 3.5h2.8v.7h-3.8zm6.8.1c-.5 0-.9-.1-1.2-.3-.3-.2-.6-.5-.8-.9-.2-.4-.3-.8-.3-1.3s.1-.9.3-1.3c.2-.4.4-.7.8-.9.3-.2.7-.3 1.2-.3.3 0 .5 0 .8.1.2.1.5.2.7.4.2.2.4.4.5.7.1.3.2.7.2 1.1v.3h-3.8v-.6h3c0-.3-.1-.5-.2-.7-.1-.2-.3-.4-.5-.5-.2-.1-.4-.2-.7-.2-.3 0-.6.1-.8.2-.2.1-.4.3-.5.6-.1.2-.2.5-.2.8v.4c0 .4.1.7.2.9.1.3.3.4.5.6.2.1.5.2.8.2.2 0 .4 0 .5-.1.2-.1.3-.1.4-.3.1-.1.2-.3.3-.4l.7.2c-.1.2-.2.5-.4.6-.2.2-.4.3-.7.4-.1.2-.4.3-.8.3z"/><path d="M8.9 172.3h22.7c.9 0 1.6.7 1.6 1.6v9.7c0 .9-.7 1.6-1.6 1.6H8.9c-.9 0-1.6-.7-1.6-1.6V174c0-.9.7-1.7 1.6-1.7z" style="fill:#fc9a58;fill-opacity:.15"/><path d="M14.9 177.9h-.8c0-.2-.1-.4-.2-.6-.1-.2-.3-.3-.4-.4-.2-.1-.3-.2-.5-.3-.2-.1-.4-.1-.6-.1-.4 0-.7.1-1.1.3-.3.2-.6.5-.8.9-.2.4-.3.9-.3 1.4 0 .6.1 1 .3 1.4.2.4.4.7.8.9.3.2.7.3 1.1.3.2 0 .4 0 .6-.1.2-.1.4-.1.5-.3.2-.1.3-.3.4-.4.1-.2.2-.4.2-.6h.8l-.3.9c-.2.3-.4.5-.6.7-.2.2-.5.3-.8.4-.3.1-.6.1-.9.1-.6 0-1-.1-1.5-.4-.4-.3-.8-.7-1-1.2-.2-.5-.4-1.1-.4-1.8s.1-1.3.4-1.8c.2-.5.6-.9 1-1.2.4-.3.9-.4 1.5-.4.3 0 .6 0 .9.1.3.1.6.2.8.4.2.2.4.4.6.7.2.4.3.7.3 1.1zm3.2 4.5c-.4 0-.8-.1-1.2-.3-.3-.2-.6-.5-.8-.9-.2-.4-.3-.8-.3-1.3s.1-.9.3-1.3c.2-.4.4-.7.8-.9.3-.2.7-.3 1.2-.3.4 0 .8.1 1.2.3.3.2.6.5.8.9.2.4.3.8.3 1.3s-.1.9-.3 1.3c-.2.4-.4.7-.8.9-.4.2-.8.3-1.2.3zm0-.6c.3 0 .6-.1.8-.3s.4-.4.5-.7c.1-.3.2-.6.2-.9 0-.3-.1-.6-.2-.9-.1-.3-.3-.5-.5-.7-.2-.2-.5-.3-.8-.3-.3 0-.6.1-.8.3-.2.2-.4.4-.5.7-.1.3-.2.6-.2.9 0 .3.1.6.2.9.1.3.3.5.5.7.2.2.4.3.8.3zm4.1-5.9v6.5h-.7v-6.5h.7zm3.3 6.5c-.4 0-.8-.1-1.2-.3-.3-.2-.6-.5-.8-.9-.2-.4-.3-.8-.3-1.3s.1-.9.3-1.3c.2-.4.4-.7.8-.9.3-.2.7-.3 1.2-.3.4 0 .8.1 1.2.3.3.2.6.5.8.9.2.4.3.8.3 1.3s-.1.9-.3 1.3c-.2.4-.4.7-.8.9-.4.2-.8.3-1.2.3zm0-.6c.3 0 .6-.1.8-.3.2-.2.4-.4.5-.7.1-.3.2-.6.2-.9 0-.3-.1-.6-.2-.9-.1-.3-.3-.5-.5-.7-.2-.2-.5-.3-.8-.3-.3 0-.6.1-.8.3-.2.2-.4.4-.5.7-.1.3-.2.6-.2.9 0 .3.1.6.2.9.1.3.3.5.5.7.2.2.5.3.8.3zm3.4.5v-4.9h.7v.7h.1c.1-.2.2-.4.5-.6.2-.2.5-.2.8-.2h.4v.8h-.5c-.2 0-.4.1-.6.1-.2.1-.3.2-.4.4-.1.2-.2.4-.2.6v3.1h-.8z" style="fill:#fc9a58"/><path class="st7" d="M10 207.5h-.9l2.4-6.5h.8l2.4 6.5h-.8L12 202h-.1l-1.9 5.5zm.3-2.6h3.3v.7h-3.3v-.7zm6.1-3.9v6.5h-.7V201h.7zm1.3 6.5v-4.9h.7v4.9h-.7zm.4-5.7c-.1 0-.3 0-.4-.1-.1-.1-.2-.2-.2-.4 0-.1.1-.3.2-.4.1-.1.2-.1.4-.1.1 0 .3.1.4.1.1.1.2.2.2.4 0 .1-.1.3-.2.4-.1.1-.2.1-.4.1zm3.7 7.6c-.4 0-.7 0-.9-.1-.3-.1-.5-.2-.6-.4-.2-.1-.3-.3-.4-.5l.6-.4.3.3c.1.1.2.2.4.3.2.1.4.1.7.1.4 0 .7-.1 1-.3.3-.2.4-.5.4-.9v-1h-.1c-.1.1-.1.2-.2.3-.1.1-.2.2-.4.3-.2.1-.4.1-.8.1s-.7-.1-1.1-.3c-.3-.2-.6-.5-.7-.8-.2-.4-.3-.8-.3-1.3s.1-.9.3-1.3c.2-.4.4-.7.7-.9.3-.2.7-.3 1.1-.3.3 0 .6.1.8.2.2.1.3.2.4.4.1.1.2.2.2.3h.1v-.8h.7v5c0 .4-.1.8-.3 1-.2.3-.4.5-.8.6-.3.3-.7.4-1.1.4zm0-2.7c.3 0 .6-.1.8-.2.2-.1.4-.3.5-.6.1-.3.2-.6.2-.9 0-.4-.1-.7-.2-.9-.1-.3-.3-.5-.5-.6-.2-.2-.5-.2-.8-.2-.3 0-.6.1-.8.2-.2.2-.4.4-.5.6-.1.3-.2.6-.2.9 0 .3.1.6.2.9.1.3.3.5.5.6.2.2.5.2.8.2zm4.2-2.1v2.9h-.7v-4.9h.7v.8h.1c.1-.2.3-.4.5-.6.2-.2.5-.2.9-.2.3 0 .6.1.9.2.2.1.4.3.6.6.1.3.2.6.2 1v3.1h-.7v-3c0-.4-.1-.7-.3-.9-.2-.2-.5-.3-.8-.3-.2 0-.5.1-.6.2-.2.1-.3.3-.4.5-.3 0-.4.3-.4.6zM13.3 228.6c0-.3-.2-.6-.5-.7-.3-.2-.6-.3-1-.3-.3 0-.5 0-.8.1-.2.1-.4.2-.5.4-.1.2-.2.3-.2.6 0 .2 0 .3.1.4l.3.3c.1.1.3.1.4.2.1.1.3.1.4.1l.7.2c.2 0 .4.1.6.2l.6.3c.2.1.4.3.5.5.1.2.2.5.2.8 0 .4-.1.7-.3 1-.2.3-.4.5-.8.7-.3.2-.8.3-1.3.3s-.9-.1-1.2-.2c-.3-.1-.6-.4-.8-.6-.2-.3-.3-.6-.3-.9h.8c0 .2.1.4.2.6.1.2.3.3.6.4.2.1.5.1.7.1.3 0 .6 0 .8-.1.2-.1.4-.2.6-.4.1-.2.2-.4.2-.6 0-.2-.1-.4-.2-.5-.1-.1-.3-.2-.5-.3-.2-.1-.4-.2-.6-.2l-.8-.2c-.5-.1-.9-.4-1.2-.6-.3-.3-.4-.6-.4-1.1 0-.4.1-.7.3-.9.2-.3.5-.5.8-.6.3-.2.7-.2 1.1-.2.4 0 .8.1 1.1.2.3.1.6.4.8.6.2.3.3.6.3.9h-.7zm4.1 0v.6h-2.5v-.6h2.5zm-1.8-1.2h.7v4.6c0 .2 0 .4.1.5.1.1.1.2.2.2s.2.1.3.1H17.2l.2.7c-.1 0-.1 0-.2.1h-.3c-.2 0-.4 0-.6-.1-.2-.1-.4-.2-.5-.4-.1-.2-.2-.4-.2-.7v-5zm3.4 7.8h-.3c-.1 0-.2 0-.2-.1l.2-.7c.3.1.5.1.7 0 .2-.1.3-.3.5-.7l.1-.4-1.8-4.9h.8l1.3 3.9h.1l1.3-3.9h.8l-2.1 5.6c-.1.2-.2.5-.3.6-.1.2-.3.3-.5.4-.2.2-.4.2-.6.2zm5.3-8.3v6.5h-.7v-6.5h.7zm3.4 6.6c-.5 0-.9-.1-1.2-.3-.3-.2-.6-.5-.8-.9-.2-.4-.3-.8-.3-1.3s.1-.9.3-1.3c.2-.4.4-.7.8-.9.3-.2.7-.3 1.2-.3.3 0 .5 0 .8.1.2.1.5.2.7.4.2.2.4.4.5.7.1.3.2.7.2 1.1v.3h-3.8v-.6h3c0-.3-.1-.5-.2-.7-.1-.2-.3-.4-.5-.5-.2-.1-.4-.2-.7-.2-.3 0-.6.1-.8.2-.2.1-.4.3-.5.6-.1.2-.2.5-.2.8v.4c0 .4.1.7.2.9.1.3.3.4.5.6.2.1.5.2.8.2.2 0 .4 0 .5-.1.2-.1.3-.1.4-.3.1-.1.2-.3.3-.4l.7.2c-.1.2-.2.5-.4.6-.2.2-.4.3-.7.4-.2.3-.5.3-.8.3zM59 246.6v5.9h-.7v-5.9h.7zm3.3 1.5v.6H60v-.6h2.3zm-1.6-1.1h.7v4.2c0 .2 0 .3.1.4.1.1.1.2.2.2h.6l.1.6s-.1 0-.2.1h-.3c-.2 0-.4 0-.6-.1-.2-.1-.3-.2-.5-.4-.1-.2-.2-.4-.2-.6V247zm3.9 5.6c-.3 0-.5-.1-.8-.2-.2-.1-.4-.3-.5-.5-.1-.2-.2-.4-.2-.7 0-.3 0-.5.1-.6.1-.2.2-.3.4-.4.2-.1.4-.2.6-.2.2 0 .4-.1.6-.1.3 0 .5-.1.7-.1.2 0 .3-.1.4-.1.1 0 .1-.1.1-.2 0-.3-.1-.5-.2-.7-.2-.2-.4-.2-.7-.2-.3 0-.6.1-.8.2-.2.1-.3.3-.4.5l-.6-.2c.1-.3.3-.5.5-.6.2-.2.4-.3.6-.3.2-.1.5-.1.7-.1.1 0 .3 0 .5.1.2 0 .4.1.5.2.2.1.3.3.4.5.1.2.2.5.2.8v2.9H66v-.6c0 .1-.1.2-.2.3-.1.1-.3.2-.4.3h-.8zm.1-.6c.3 0 .5-.1.7-.2.2-.1.3-.2.4-.4.1-.2.1-.3.1-.5v-.6s-.1.1-.2.1-.2.1-.3.1c-.1 0-.2 0-.4.1h-.3c-.2 0-.3.1-.5.1-.2.1-.3.1-.4.2-.1.1-.1.2-.1.4s.1.4.3.5c.2.1.4.2.7.2zm3.8-5.4v5.9h-.7v-5.9h.7zm1.3 5.9v-4.4h.7v4.4h-.7zm.3-5.1c-.1 0-.2 0-.3-.1-.1-.1-.1-.2-.1-.3 0-.1 0-.2.1-.3.1-.1.2-.1.3-.1s.2 0 .3.1c.1.1.1.2.1.3 0 .1 0 .2-.1.3 0 0-.1.1-.3.1zm3.4 5.2c-.4 0-.8-.1-1.1-.3-.3-.2-.5-.5-.7-.8-.2-.3-.2-.7-.2-1.2 0-.4.1-.8.2-1.2.2-.3.4-.6.7-.8.3-.2.6-.3 1-.3.3 0 .6.1.8.2.2.1.5.3.6.5.2.2.3.4.3.7h-.7c-.1-.2-.2-.4-.3-.5-.2-.2-.4-.2-.7-.2-.3 0-.5.1-.7.2-.2.1-.4.3-.5.6-.1.2-.2.5-.2.9 0 .3.1.6.2.9.1.3.3.4.5.6.2.1.4.2.7.2.2 0 .3 0 .5-.1.1-.1.3-.2.4-.3.1-.1.2-.3.2-.4h.7c0 .3-.1.5-.3.7-.1.2-.3.4-.6.5-.2 0-.5.1-.8.1zm2.7-.1v-4.4h.7v4.4h-.7zm.4-5.1c-.1 0-.2 0-.3-.1-.1-.1-.1-.2-.1-.3 0-.1 0-.2.1-.3.1-.1.2-.1.3-.1.1 0 .2 0 .3.1.1.1.1.2.1.3 0 .1 0 .2-.1.3-.1 0-.2.1-.3.1zm1.4 5.1v-.5l2.5-3.2h-2.4v-.6h3.3v.5l-2.4 3.2h2.5v.6H78zm6.3.1c-.4 0-.8-.1-1.1-.3-.3-.2-.5-.5-.7-.8-.2-.3-.2-.7-.2-1.2s.1-.9.2-1.2c.2-.3.4-.6.7-.8.3-.2.6-.3 1-.3.2 0 .5 0 .7.1.2.1.4.2.6.4.2.2.3.4.4.7.1.3.2.6.2 1v.3h-3.4v-.6h2.7c0-.2 0-.5-.1-.7-.1-.2-.2-.3-.4-.5-.2-.1-.4-.2-.6-.2-.3 0-.5.1-.7.2-.2.1-.3.3-.5.5-.1.2-.2.4-.2.7v.4c0 .3.1.6.2.8.1.2.3.4.5.5.2.1.4.2.7.2.2 0 .3 0 .5-.1.1-.1.3-.1.4-.2.1-.1.2-.2.2-.4l.7.2-.3.6c-.2.2-.4.3-.6.4-.3.3-.6.3-.9.3zM127.4 252.5h-1.8v-5.9h1.9c.6 0 1.1.1 1.5.4.4.2.7.6.9 1 .2.4.3 1 .3 1.6 0 .6-.1 1.1-.3 1.6-.2.4-.5.8-1 1-.4.2-.9.3-1.5.3zm-1.1-.6h1.1c.5 0 .9-.1 1.2-.3.3-.2.6-.5.7-.8.2-.3.2-.8.2-1.2 0-.5-.1-.9-.2-1.2-.2-.3-.4-.6-.7-.8-.3-.2-.7-.3-1.2-.3h-1.1v4.6zm6.9.7c-.4 0-.8-.1-1.1-.3-.3-.2-.5-.5-.7-.8-.2-.3-.2-.7-.2-1.2s.1-.9.2-1.2c.2-.3.4-.6.7-.8.3-.2.6-.3 1-.3.2 0 .5 0 .7.1.2.1.4.2.6.4.2.2.3.4.4.7.1.3.2.6.2 1v.3h-3.4v-.6h2.7c0-.2-.1-.5-.2-.7-.1-.2-.2-.3-.4-.5-.2-.1-.4-.2-.6-.2-.3 0-.5.1-.7.2-.2.1-.3.3-.5.5-.1.2-.2.4-.2.7v.4c0 .3.1.6.2.8.1.2.3.4.5.5.2.1.4.2.7.2.2 0 .3 0 .5-.1.1-.1.3-.1.4-.2.1-.1.2-.2.2-.4l.7.2-.3.6c-.2.2-.4.3-.6.4-.2.3-.5.3-.8.3zm4.7 0c-.4 0-.8-.1-1.1-.3-.3-.2-.5-.5-.7-.8-.2-.3-.2-.7-.2-1.2 0-.4.1-.8.2-1.2.2-.3.4-.6.7-.8.3-.2.6-.3 1-.3.3 0 .6.1.8.2.2.1.5.3.6.5.2.2.3.4.3.7h-.7c-.1-.2-.2-.4-.3-.5-.2-.2-.4-.2-.7-.2-.3 0-.5.1-.7.2-.2.1-.4.3-.5.6-.1.2-.2.5-.2.9 0 .3.1.6.2.9.1.3.3.4.5.6.2.1.4.2.7.2.2 0 .3 0 .5-.1.1-.1.3-.2.4-.3.1-.1.2-.3.2-.4h.7c0 .3-.1.5-.3.7-.2.2-.3.4-.6.5-.2 0-.5.1-.8.1zm4.5 0c-.4 0-.8-.1-1.1-.3-.3-.2-.5-.5-.7-.8-.2-.3-.3-.7-.3-1.2s.1-.9.3-1.2c.2-.3.4-.6.7-.8.3-.2.7-.3 1.1-.3.4 0 .7.1 1 .3.3.2.5.5.7.8.2.3.3.7.3 1.2s-.1.9-.3 1.2c-.2.3-.4.6-.7.8-.3.2-.6.3-1 .3zm0-.6c.3 0 .6-.1.7-.2.2-.2.3-.4.4-.6.1-.3.1-.5.1-.8 0-.3 0-.6-.1-.8-.1-.3-.2-.5-.4-.6-.2-.2-.4-.2-.7-.2-.3 0-.6.1-.7.2-.2.2-.3.4-.4.6-.1.3-.1.5-.1.8 0 .3 0 .6.1.8.1.3.2.5.4.6.1.1.4.2.7.2zm3 .5v-4.4h.7v.7c.1-.2.2-.4.4-.5s.4-.2.7-.2h.4v.7h-.5c-.2 0-.4 0-.6.1-.2.1-.3.2-.4.4-.1.2-.1.3-.1.5v2.8h-.6zm4.3.1c-.3 0-.5-.1-.8-.2-.2-.1-.4-.3-.5-.5-.1-.2-.2-.4-.2-.7 0-.3 0-.5.1-.6.1-.2.2-.3.4-.4.2-.1.4-.2.6-.2.2 0 .4-.1.6-.1.3 0 .5-.1.7-.1.2 0 .3-.1.4-.1.1 0 .1-.1.1-.2 0-.3-.1-.5-.2-.7-.2-.2-.4-.2-.7-.2-.3 0-.6.1-.8.2-.2.1-.3.3-.4.5l-.6-.2c.1-.3.3-.5.5-.6.2-.2.4-.3.6-.3.2-.1.5-.1.7-.1.1 0 .3 0 .5.1.2 0 .4.1.5.2.2.1.3.3.4.5.1.2.2.5.2.8v2.9h-.7v-.6c0 .1-.1.2-.2.3-.1.1-.2.2-.4.3h-.8zm.2-.6c.3 0 .5-.1.7-.2.2-.1.3-.2.4-.4.1-.2.1-.3.1-.5v-.6s-.1.1-.2.1-.2.1-.3.1c-.1 0-.2 0-.4.1h-.3c-.2 0-.3.1-.5.1-.2.1-.3.1-.4.2-.1.1-.1.2-.1.4s.1.4.3.5c.2.1.4.2.7.2zm5-3.9v.6h-2.3v-.6h2.3zm-1.6-1.1h.7v4.2c0 .2 0 .3.1.4.1.1.1.2.2.2h.6l.1.6s-.1 0-.2.1h-.3c-.2 0-.4 0-.6-.1-.2-.1-.3-.2-.5-.4-.1-.2-.2-.4-.2-.6V247zm2.7 5.5v-4.4h.7v4.4h-.7zm.3-5.1c-.1 0-.2 0-.3-.1-.1-.1-.1-.2-.1-.3 0-.1 0-.2.1-.3.1-.1.2-.1.3-.1.1 0 .2 0 .3.1.1.1.1.2.1.3 0 .1 0 .2-.1.3 0 0-.2.1-.3.1zm3.4 5.2c-.4 0-.8-.1-1.1-.3-.3-.2-.5-.5-.7-.8-.2-.3-.2-.7-.2-1.2s.1-.9.2-1.2c.2-.3.4-.6.7-.8.3-.2.7-.3 1.1-.3s.7.1 1 .3c.3.2.5.5.7.8.2.3.3.7.3 1.2s-.1.9-.3 1.2c-.2.3-.4.6-.7.8-.3.2-.6.3-1 .3zm0-.6c.3 0 .6-.1.7-.2.2-.2.3-.4.4-.6.1-.3.1-.5.1-.8 0-.3 0-.6-.1-.8-.1-.3-.2-.5-.4-.6-.2-.2-.4-.2-.7-.2s-.6.1-.7.2c-.2.2-.3.4-.4.6-.1.3-.1.5-.1.8 0 .3 0 .6.1.8.1.3.2.5.4.6.1.1.4.2.7.2zm3.7-2.1v2.7h-.7v-4.4h.7v.7h.1c.1-.2.3-.4.5-.5.2-.1.5-.2.8-.2.3 0 .6.1.8.2.2.1.4.3.5.6.1.2.2.6.2.9v2.8h-.7v-2.8c0-.3-.1-.6-.3-.8-.2-.2-.4-.3-.7-.3-.2 0-.4 0-.6.1-.2.1-.3.2-.4.4-.1.1-.2.3-.2.6z"/><path class="st9" d="M105.4 144.8h28.4c.9 0 1.6.7 1.6 1.6v9.7c0 .9-.7 1.6-1.6 1.6h-28.4c-.9 0-1.6-.7-1.6-1.6v-9.7c0-.9.7-1.6 1.6-1.6z"/><path class="st10" d="M106.2 154.8v-6.5h.8v2.9h3.5v-2.9h.8v6.5h-.8v-2.9H107v2.9h-.8zm8.6.1c-.5 0-.9-.1-1.2-.3-.3-.2-.6-.5-.8-.9-.2-.4-.3-.8-.3-1.3s.1-.9.3-1.3c.2-.4.4-.7.8-.9.3-.2.7-.3 1.2-.3.3 0 .5 0 .8.1.2.1.5.2.7.4.2.2.4.4.5.7.1.3.2.7.2 1.1v.3h-4v-.6h3c0-.3-.1-.5-.2-.7-.1-.2-.3-.4-.5-.5-.2-.1-.4-.2-.7-.2-.3 0-.6.1-.8.2-.2.1-.4.3-.5.6-.1.2-.2.5-.2.8v.4c0 .4.1.7.2.9.1.3.3.4.5.6.2.1.5.2.8.2.2 0 .4 0 .5-.1.2-.1.3-.1.4-.3.1-.1.2-.3.3-.4l.7.2c-.1.2-.2.5-.4.6-.2.2-.4.3-.7.4 0 .2-.3.3-.6.3zm3.1-.1v-4.9h.7v4.9h-.7zm.4-5.7c-.1 0-.3 0-.4-.1-.1-.1-.2-.2-.2-.4 0-.1.1-.3.2-.4.1-.1.2-.1.4-.1.1 0 .3 0 .4.1.1.1.2.2.2.4 0 .1-.1.3-.2.4-.1 0-.3.1-.4.1zm3.7 7.6c-.4 0-.7 0-.9-.1-.3-.1-.5-.2-.6-.4-.2-.1-.3-.3-.4-.5l.6-.4.3.3c.1.1.2.2.4.3.2.1.4.1.7.1.4 0 .7-.1 1-.3.3-.2.4-.5.4-.9v-1h-.1c-.1.1-.1.2-.2.3-.1.1-.2.2-.4.3-.2.1-.4.1-.8.1s-.7-.1-1.1-.3c-.3-.2-.6-.5-.7-.8-.2-.4-.3-.8-.3-1.3s.1-.9.3-1.3c.2-.4.4-.7.7-.9.3-.2.7-.3 1.1-.3.3 0 .6.1.8.2.2.1.3.2.4.4.1.1.2.2.2.3h.1v-.8h.7v5c0 .4-.1.8-.3 1-.2.3-.4.5-.8.6-.4.3-.7.4-1.1.4zm0-2.7c.3 0 .6-.1.8-.2.2-.1.4-.3.5-.6.1-.3.2-.6.2-.9 0-.4-.1-.7-.2-.9-.1-.3-.3-.5-.5-.6-.2-.2-.5-.2-.8-.2-.3 0-.6.1-.8.2-.2.2-.4.4-.5.6-.1.3-.2.6-.2.9 0 .3.1.6.2.9.1.3.3.5.5.6.2.1.5.2.8.2zm4.2-2.2v2.9h-.7v-6.5h.7v2.4h.1c.1-.3.3-.5.5-.6.2-.2.5-.2.9-.2.3 0 .6.1.9.2.2.1.4.3.6.6.1.3.2.6.2 1v3.1h-.7v-3c0-.4-.1-.7-.3-.9-.2-.2-.5-.3-.8-.3-.2 0-.5.1-.7.2-.2.1-.3.3-.5.5-.1.1-.2.4-.2.6zm6.7-1.9v.6h-2.5v-.6h2.5zm-1.8-1.2h.7v4.6c0 .2 0 .4.1.5.1.1.1.2.2.2s.2.1.3.1H132.7l.2.7c-.1 0-.1 0-.2.1h-.3c-.2 0-.4 0-.6-.1-.2-.1-.4-.2-.5-.4-.1-.2-.2-.4-.2-.7v-5z"/><defs><path id="SVGID_00000034056206935434104120000013113823631562897586_" d="M49.5 88.8H189v19.5H49.5z"/></defs><clipPath id="SVGID_00000093146050884475527640000003901031575389107129_"><use xlink:href="#SVGID_00000034056206935434104120000013113823631562897586_" style="overflow:visible"/></clipPath><g style="clip-path:url(#SVGID_00000093146050884475527640000003901031575389107129_)"><path class="st14" d="M51.1 89.2h135.4c.7 0 1.2.5 1.2 1.2v15.4c0 .7-.5 1.2-1.2 1.2H51.1c-.7 0-1.2-.5-1.2-1.2V90.4c0-.6.5-1.2 1.2-1.2z"/><path class="st7" d="M56.7 102.3v-6.5h.8v2.9H61v-2.9h.8v6.5H61v-2.9h-3.5v2.9h-.8zm8.6.1c-.5 0-.9-.1-1.2-.3-.3-.2-.6-.5-.8-.9-.2-.4-.3-.8-.3-1.3s.1-.9.3-1.3c.2-.4.4-.7.8-.9.3-.2.7-.3 1.2-.3.3 0 .5 0 .8.1.2.1.5.2.7.4.2.2.4.4.5.7.1.3.2.7.2 1.1v.3h-3.8v-.6h3c0-.3-.1-.5-.2-.7-.1-.2-.3-.4-.5-.5-.2-.1-.4-.2-.7-.2-.3 0-.6.1-.8.2-.2.1-.4.3-.5.6-.1.2-.2.5-.2.8v.4c0 .4.1.7.2.9.1.3.3.4.5.6.2.1.5.2.8.2.2 0 .4 0 .5-.1.2-.1.3-.1.4-.3.1-.1.2-.3.3-.4l.7.2c-.1.2-.2.5-.4.6-.2.2-.4.3-.7.4-.2.3-.5.3-.8.3zm3.9-6.6v6.5h-.7v-6.5h.7zm2.1 0v6.5h-.7v-6.5h.7zm1.4 6.5v-4.9h.7v4.9h-.7zm.4-5.7c-.1 0-.3 0-.4-.1-.1-.1-.2-.2-.2-.4 0-.1.1-.3.2-.4.1-.1.2-.1.4-.1.1 0 .3 0 .4.1.1.1.2.2.2.4 0 .1-.1.3-.2.4-.2.1-.3.1-.4.1zm2.2.9 1.2 2 1.2-2h.9L77 99.9l1.6 2.4h-.9l-1.2-1.9-1.2 1.9h-.9l1.5-2.4-1.5-2.4h.9z"/><path class="st15" d="M179.8 98H178l2.4-2.4 2.4 2.4h-3zm0 1.6H178l2.4 2.4 2.4-2.4h-3z"/></g><defs><path id="SVGID_00000127732284902775301180000014132066629518092682_" d="M49.5 114.8H189v19.5H49.5z"/></defs><clipPath id="SVGID_00000017483887254692586650000018077315692135254928_"><use xlink:href="#SVGID_00000127732284902775301180000014132066629518092682_" style="overflow:visible"/></clipPath><g style="clip-path:url(#SVGID_00000017483887254692586650000018077315692135254928_)"><path class="st14" d="M51.1 115.2h135.4c.7 0 1.2.5 1.2 1.2v15.4c0 .7-.5 1.2-1.2 1.2H51.1c-.7 0-1.2-.5-1.2-1.2v-15.4c0-.7.5-1.2 1.2-1.2z"/><path class="st7" d="M58.7 128.4c-.4 0-.7-.1-1-.2-.3-.1-.5-.4-.7-.6-.2-.3-.3-.6-.3-.9h.8c0 .3.2.5.4.7.2.2.5.3.9.3.3 0 .5-.1.7-.2.2-.1.4-.3.5-.5.1-.2.2-.5.2-.7 0-.3-.1-.5-.2-.8-.1-.2-.3-.4-.5-.5-.2-.1-.5-.2-.7-.2-.2 0-.4 0-.6.1-.2.1-.4.1-.5.2l-.7-.1.4-3.2h3.4v.7h-2.7l-.2 1.9c.1-.1.3-.2.5-.3.2-.1.4-.1.6-.1.4 0 .8.1 1.1.3.3.2.6.4.7.8.2.3.3.7.3 1.1 0 .4-.1.8-.3 1.1-.2.3-.4.6-.8.8-.6.2-.9.3-1.3.3zm5.5 0c-.5 0-.9-.1-1.2-.4-.3-.3-.6-.6-.8-1.1-.2-.5-.3-1.1-.3-1.8s.1-1.3.3-1.8c.2-.5.4-.9.8-1.1.3-.3.7-.4 1.2-.4s.9.1 1.2.4c.3.3.6.6.8 1.1.2.5.3 1.1.3 1.8s-.1 1.3-.3 1.8c-.2.5-.4.9-.8 1.1-.3.2-.8.4-1.2.4zm0-.7c.5 0 .8-.2 1.1-.7.3-.5.4-1.1.4-2 0-.6-.1-1-.2-1.4-.1-.4-.3-.7-.5-.9-.2-.2-.5-.3-.8-.3-.5 0-.8.2-1.1.7-.3.5-.4 1.1-.4 2 0 .6.1 1 .2 1.4.1.4.3.7.5.9.2.2.5.3.8.3zm5.5.7c-.5 0-.9-.1-1.2-.4-.3-.3-.6-.6-.8-1.1-.2-.5-.3-1.1-.3-1.8s.1-1.3.3-1.8c.2-.5.4-.9.8-1.1.3-.3.7-.4 1.2-.4s.9.1 1.2.4c.3.3.6.6.8 1.1.2.5.3 1.1.3 1.8s-.1 1.3-.3 1.8c-.2.5-.4.9-.8 1.1-.3.2-.7.4-1.2.4zm0-.7c.5 0 .8-.2 1.1-.7.3-.5.4-1.1.4-2 0-.6-.1-1-.2-1.4-.1-.4-.3-.7-.5-.9-.2-.2-.5-.3-.8-.3-.5 0-.8.2-1.1.7-.3.5-.4 1.1-.4 2 0 .6.1 1 .2 1.4.1.4.3.7.5.9.3.2.5.3.8.3zm8.8-3v.7h-2.8v-.7h2.8zm3.9-2.9h.9l2.2 5.4h.1l2.2-5.4h.9v6.5H88v-4.9l-2 4.9h-.7l-2-4.9h-.1v4.9h-.7v-6.5zm9.9 6.6c-.5 0-.9-.1-1.2-.3-.3-.2-.6-.5-.8-.9-.2-.4-.3-.8-.3-1.3s.1-.9.3-1.3c.2-.4.4-.7.8-.9.3-.2.7-.3 1.2-.3.3 0 .5 0 .8.1.2.1.5.2.7.4.2.2.4.4.5.7.1.3.2.7.2 1.1v.3h-3.8v-.6h3c0-.3-.1-.5-.2-.7-.1-.2-.3-.4-.5-.5-.2-.1-.4-.2-.7-.2-.3 0-.6.1-.8.2-.2.1-.4.3-.5.6-.1.2-.2.5-.2.8v.4c0 .4.1.7.2.9.1.3.3.4.5.6.2.1.5.2.8.2.2 0 .4 0 .5-.1.2-.1.3-.1.4-.3.1-.1.2-.3.3-.4l.7.2c-.1.2-.2.5-.4.6-.2.2-.4.3-.7.4-.2.2-.5.3-.8.3zm5 0c-.4 0-.8-.1-1.1-.3-.3-.2-.6-.5-.7-.9-.2-.4-.3-.8-.3-1.3s.1-1 .3-1.3c.2-.4.4-.7.7-.9.3-.2.7-.3 1.1-.3.3 0 .6.1.8.2.2.1.3.2.4.4.1.1.2.2.2.3h.1v-2.4h.7v6.5h-.7v-.7h-.1c-.1.1-.1.2-.2.3-.1.1-.2.3-.4.4-.2-.1-.5 0-.8 0zm.1-.7c.3 0 .6-.1.8-.2.2-.2.4-.4.5-.7.1-.3.2-.6.2-1s-.1-.7-.2-1c-.1-.3-.3-.5-.5-.6-.2-.2-.5-.2-.8-.2-.3 0-.6.1-.8.2-.2.2-.4.4-.5.7-.1.3-.2.6-.2.9 0 .3.1.7.2.9.1.3.3.5.5.7.2.2.5.3.8.3zm3.6.6v-4.9h.7v4.9h-.7zm.4-5.7c-.1 0-.3 0-.4-.1-.1-.1-.2-.2-.2-.4 0-.1.1-.3.2-.4.1-.1.2-.1.4-.1.1 0 .3 0 .4.1.1.1.2.2.2.4 0 .1-.1.3-.2.4-.1 0-.3.1-.4.1zm4.8 3.7v-2.9h.7v4.9h-.7v-.8h-.1c-.1.2-.3.5-.5.6-.2.2-.5.3-.9.3-.3 0-.6-.1-.8-.2-.2-.1-.4-.3-.6-.6-.1-.3-.2-.6-.2-1v-3.1h.7v3c0 .4.1.6.3.8.2.2.5.3.8.3.2 0 .4 0 .6-.1.2-.1.4-.2.5-.4.1-.3.2-.5.2-.8zm2.1 2v-4.9h.7v.8h.1c.1-.3.3-.5.5-.6.2-.1.5-.2.8-.2.3 0 .6.1.8.2.2.1.4.3.5.6h.1c.1-.3.3-.5.6-.6.2-.2.5-.2.9-.2s.8.1 1.1.4c.3.3.4.7.4 1.3v3.3h-.7V125c0-.4-.1-.6-.3-.8-.2-.2-.4-.2-.7-.2-.3 0-.6.1-.8.3-.2.2-.3.5-.3.8v3.2h-.8V125c0-.3-.1-.5-.3-.7-.2-.2-.4-.3-.7-.3-.2 0-.4.1-.5.2-.2.1-.3.2-.4.4-.1.2-.2.4-.2.6v3h-.8z"/><path class="st15" d="M179.8 123.9H178l2.4-2.4 2.4 2.4h-3zm0 1.7H178l2.4 2.4 2.4-2.4h-3z"/></g><defs><path id="SVGID_00000148651063704682954130000007192796569974180024_" d="M49.5 140.7h48.7v21.1H49.5z"/></defs><clipPath id="SVGID_00000114072439759697234300000018338892887649700237_"><use xlink:href="#SVGID_00000148651063704682954130000007192796569974180024_" style="overflow:visible"/></clipPath><g style="clip-path:url(#SVGID_00000114072439759697234300000018338892887649700237_)"><path class="st3" d="M51.1 141.1h45.4c.7 0 1.2.5 1.2 1.2v17.8c0 .7-.5 1.2-1.2 1.2H51.1c-.7 0-1.2-.5-1.2-1.2v-17.8c0-.6.5-1.2 1.2-1.2z"/><path class="st7" d="M58.8 154.5c-.3 0-.5-.1-.8-.2-.3-.1-.5-.3-.7-.5-.2-.2-.4-.5-.5-.9-.1-.4-.2-.9-.2-1.5s.1-1.1.2-1.5c.1-.4.3-.8.5-1.1.2-.3.5-.5.7-.7.3-.2.6-.2 1-.2s.7.1 1 .2c.3.1.5.3.7.6.2.3.3.6.3.9h-.8c-.1-.3-.2-.5-.4-.7-.2-.2-.5-.3-.8-.3-.5 0-.9.2-1.2.7-.3.4-.4 1.1-.4 1.9h.1c.1-.2.3-.3.4-.5.2-.1.3-.2.5-.3.2-.1.4-.1.6-.1.4 0 .7.1 1 .3.3.2.6.4.7.8.2.3.3.7.3 1.1 0 .4-.1.8-.3 1.1-.2.3-.4.6-.8.8-.3 0-.7.1-1.1.1zm0-.7c.3 0 .5-.1.7-.2.2-.1.4-.3.5-.5.1-.2.2-.5.2-.7 0-.3-.1-.5-.2-.7-.1-.2-.3-.4-.5-.5-.2-.1-.4-.2-.7-.2-.2 0-.4 0-.6.1-.2.1-.3.2-.5.3-.1.1-.2.3-.3.5-.1.2-.1.4-.1.6 0 .3.1.5.2.7.1.2.3.4.5.5.3 0 .5.1.8.1zm3.2-.7v-.6l2.9-4.5h.5v1h-.3l-2.2 3.4v.1h3.8v.7H62zm3.1 1.3v-6.5h.7v6.5h-.7z"/><path class="st18" d="M85.4 154.4v-5.3h1.8c.4 0 .8.1 1 .2.3.1.5.3.6.6.1.3.2.5.2.9 0 .3-.1.6-.2.9-.1.3-.3.5-.6.6-.3.1-.6.2-1 .2h-1.3v-.6h1.3c.3 0 .5 0 .7-.1.2-.1.3-.2.4-.4.1-.2.1-.4.1-.6 0-.2 0-.4-.1-.6-.1-.2-.2-.3-.4-.4-.2-.1-.4-.1-.7-.1H86v4.7h-.6zm4.9-5.3 1.4 2.2 1.4-2.2h.8l-1.7 2.7 1.7 2.7h-.8l-1.4-2.2-1.4 2.2h-.8l1.7-2.7-1.7-2.7h.8z"/></g><defs><path id="SVGID_00000136396882556329119340000013258710166289309085_" d="M49.5 168.3H189v19.5H49.5z"/></defs><clipPath id="SVGID_00000088812532215505639110000005613323662762585769_"><use xlink:href="#SVGID_00000136396882556329119340000013258710166289309085_" style="overflow:visible"/></clipPath><g style="clip-path:url(#SVGID_00000088812532215505639110000005613323662762585769_)"><path class="st3" d="M51.1 168.7h135.4c.7 0 1.2.5 1.2 1.2v15.4c0 .7-.5 1.2-1.2 1.2H51.1c-.7 0-1.2-.5-1.2-1.2v-15.4c0-.7.5-1.2 1.2-1.2z"/><path class="st7" d="M76.6 181.1h-2v-6.5h2.1c.6 0 1.2.1 1.6.4.4.3.8.6 1 1.1.2.5.4 1.1.4 1.7 0 .7-.1 1.3-.4 1.7-.2.5-.6.9-1.1 1.1-.4.4-1 .5-1.6.5zm-1.2-.6h1.2c.5 0 1-.1 1.3-.3.4-.2.6-.5.8-.9.2-.4.3-.8.3-1.4 0-.5-.1-1-.3-1.4-.2-.4-.4-.7-.8-.9-.3-.2-.8-.3-1.3-.3h-1.3v5.2zm6.9.8c-.3 0-.6-.1-.8-.2-.3-.1-.5-.3-.6-.5-.1-.2-.2-.5-.2-.8 0-.3.1-.5.2-.7.1-.2.3-.3.4-.4.2-.1.4-.2.6-.2.2-.1.4-.1.7-.1.3 0 .5-.1.7-.1.2 0 .3-.1.4-.1.1 0 .1-.1.1-.3 0-.3-.1-.6-.3-.7-.2-.2-.4-.3-.8-.3s-.6.1-.8.2c-.2.2-.3.3-.4.5l-.7-.3c.1-.3.3-.5.5-.7.2-.2.4-.3.7-.3.3-.1.5-.1.7-.1.2 0 .3 0 .5.1.2 0 .4.1.6.2.2.1.4.3.5.5.1.2.2.5.2.9v3.2h-.7v-.7c-.1.1-.1.2-.3.3-.1.1-.3.2-.5.3-.1.2-.4.3-.7.3zm.1-.7c.3 0 .5-.1.7-.2.2-.1.4-.3.5-.4.1-.2.2-.4.2-.6v-.7s-.1.1-.2.1-.2.1-.4.1c-.1 0-.3 0-.4.1h-.3c-.2 0-.4.1-.5.1-.2.1-.3.1-.4.2-.1.1-.2.3-.2.4 0 .3.1.5.3.6.2.2.4.3.7.3zm3.5.5v-4.9h.7v.7h.1c.1-.2.2-.4.5-.6.2-.1.5-.2.8-.2h.4v.8h-.5c-.2 0-.4.1-.6.1-.2.1-.3.2-.4.4-.1.2-.2.4-.2.6v3.1h-.8zm4-1.7v-.9h.2l2.1-2.2h.9l-2.3 2.3h-.1l-.8.8zm-.7 1.7v-6.5h.8v6.5h-.8zm3.1 0-1.9-2.4.5-.5 2.3 2.9h-.9zm8.8-4.4-.3-.6c-.1-.2-.2-.3-.4-.4-.2-.1-.3-.2-.5-.3-.2-.1-.4-.1-.6-.1-.4 0-.7.1-1 .3-.3.2-.6.5-.8.9-.2.4-.3.9-.3 1.4 0 .6.1 1 .3 1.4.2.4.4.7.8.9.3.2.7.3 1.1.3.4 0 .7-.1 1-.2.3-.2.5-.4.7-.7.2-.3.2-.6.2-1l.2.1h-2v-.7h2.5v.7c0 .5-.1 1-.3 1.4-.2.4-.5.7-.9.9-.4.2-.9.3-1.4.3-.6 0-1.1-.1-1.5-.4-.4-.3-.8-.7-1-1.2-.2-.5-.4-1.1-.4-1.8 0-.5.1-1 .2-1.4.1-.4.3-.8.6-1.1.3-.3.6-.5.9-.7.3-.2.7-.2 1.1-.2.3 0 .7.1 1 .2.3.1.6.2.8.4.2.2.4.4.6.7.2.3.3.5.3.9h-.9zm2.1 4.4v-4.9h.7v.7h.1c.1-.2.2-.4.5-.6.2-.1.5-.2.8-.2h.4v.8h-.5c-.2 0-.4.1-.6.1-.2.1-.3.2-.4.4-.1.2-.2.4-.2.6v3.1h-.8zm4.8.2c-.3 0-.6-.1-.8-.2-.3-.1-.5-.3-.6-.5-.1-.2-.2-.5-.2-.8 0-.3.1-.5.2-.7.1-.2.3-.3.4-.4.2-.1.4-.2.6-.2.2-.1.4-.1.7-.1.3 0 .5-.1.7-.1.2 0 .3-.1.4-.1.1 0 .1-.1.1-.3 0-.3-.1-.6-.3-.7-.2-.2-.4-.3-.8-.3s-.6.1-.8.2c-.2.2-.3.3-.4.5l-.7-.3c.1-.3.3-.5.5-.7.2-.2.4-.3.7-.3.3-.1.5-.1.7-.1.2 0 .3 0 .5.1.2 0 .4.1.6.2.2.1.4.3.5.5.1.2.2.5.2.9v3.2h-.7v-.7c-.1.1-.1.2-.3.3-.1.1-.3.2-.5.3-.2.2-.4.3-.7.3zm.1-.7c.3 0 .5-.1.7-.2.2-.1.4-.3.5-.4.1-.2.2-.4.2-.6v-.7s-.1.1-.2.1-.2.1-.4.1c-.1 0-.3 0-.4.1h-.3c-.2 0-.4.1-.5.1-.2.1-.3.1-.4.2-.1.1-.2.3-.2.4 0 .3.1.5.3.6.2.2.4.3.7.3zm3.8 2.4h-.3c-.1 0-.2 0-.2-.1l.2-.7c.3.1.5.1.7 0 .2-.1.3-.3.5-.7l.1-.4-1.8-4.9h.8l1.3 3.9 1.3-3.9h.8l-2.1 5.6c-.1.2-.2.5-.3.6-.1.2-.3.3-.5.4-.1.1-.3.2-.5.2z"/><path d="M51.1 169.1h16.2c.4 0 .8.4.8.8v16.2c0 .4-.4.8-.8.8H51.1c-.4 0-.8-.4-.8-.8v-16.2c0-.4.3-.8.8-.8z" style="fill:#1a1a1a"/><path d="M68.1 186.9v-6.5l-6.5 6.5h6.5z" style="fill:#fcfcfc"/></g><defs><path id="SVGID_00000118398678102345951180000015710575208165803156_" d="M144.4 140.7H189v21.1h-44.6z"/></defs><clipPath id="SVGID_00000113350962031251131170000010186273285774925751_"><use xlink:href="#SVGID_00000118398678102345951180000015710575208165803156_" style="overflow:visible"/></clipPath><g style="clip-path:url(#SVGID_00000113350962031251131170000010186273285774925751_)"><path class="st3" d="M146 141.1h41.4c.7 0 1.2.5 1.2 1.2v17.8c0 .7-.5 1.2-1.2 1.2H146c-.7 0-1.2-.5-1.2-1.2v-17.8c0-.6.5-1.2 1.2-1.2z"/><path class="st7" d="M153.4 147.4v6.5h-.8v-5.7l-1.6 1.1v-.8l1.6-1.1h.8zm2 6.5c-.2 0-.3-.1-.4-.2s-.2-.2-.2-.4.1-.3.2-.4.2-.2.4-.2.3.1.4.2.2.2.2.4c0 .1 0 .2-.1.3-.1.1-.1.2-.2.2-.1.1-.2.1-.3.1zm3.4-6.5v6.5h-.8v-5.7l-1.6 1.1v-.8l1.6-1.1h.8z"/><path class="st18" d="M182.8 151.8v.6h-2.3v-.6h2.3z"/></g><path class="st23" d="M84.7 194.6h34.9v18.7H84.7z"/><path class="st3" d="M51.1 194.6h33.7v18.7H51.1c-.7 0-1.2-.5-1.2-1.2v-16.2c0-.7.5-1.3 1.2-1.3z"/><path class="st23" d="M119.6 194.6h34.9v18.7h-34.9zM154.5 194.6h33.7c.7 0 1.2.5 1.2 1.2V212c0 .7-.5 1.2-1.2 1.2h-33.7v-18.6z"/><path class="st15" d="M72.2 199.1h-9.7v1.6h9.7v-1.6zm-3.3 2.4h-6.5v1.6h6.5v-1.6zm-6.5 4.9h6.5v1.6h-6.5v-1.6zm9.8-2.4h-9.7v1.6h9.7V204zM142.7 199.1H133v1.6h9.7v-1.6zm0 2.4h-6.5v1.6h6.5v-1.6zm-6.5 4.9h6.5v1.6h-6.5v-1.6zm6.5-2.4H133v1.6h9.7V204zM176.8 199.1h-9.7v1.6h9.7v-1.6zm0 2.4h-9.7v1.6h9.7v-1.6zm-9.7 4.9h9.7v1.6h-9.7v-1.6zm9.7-2.4h-9.7v1.6h9.7V204zM104.3 199h-9.7v1.6h9.7V199zm-1.6 2.4h-6.5v1.6h6.5v-1.6zm-6.5 4.9h6.5v1.6h-6.5v-1.6zm8.1-2.5h-9.7v1.6h9.7v-1.6z"/><path class="st3" d="M51.1 220.6h21.5v18.7H51.1c-.7 0-1.2-.5-1.2-1.2v-16.2c0-.8.5-1.3 1.2-1.3z"/><path class="st23" d="M72.6 220.6h20.7c.7 0 1.2.5 1.2 1.2V238c0 .7-.5 1.2-1.2 1.2H72.6v-18.6z"/><path class="st7" d="M81.9 226.1H86v.8h-4.1v-.8zm-3.2 6.5h4.1v.8h-4.1v-.8zM80.3 233l4.1-6.5-4.1 6.5z"/><path class="st15" d="M86.4 225.7h-4.9v1.6h1.4l-3 4.9h-1.6v1.6h4.9v-1.6h-1.4l3-4.9h1.6v-1.6zM61.6 225.9h1.6v1.6h-1.6v4.9h1.6v1.6h-4.9v-1.6H60v-4.9h-1.6v-1.6h3.2z"/><path class="st3" d="M103 220.6h19.9v18.7H103c-.7 0-1.2-.5-1.2-1.2v-16.2c0-.8.5-1.3 1.2-1.3z"/><path class="st23" d="M167.5 220.6h20.7c.7 0 1.2.5 1.2 1.2V238c0 .7-.5 1.2-1.2 1.2h-20.7v-18.6zM122.9 220.6h22.7v18.7h-22.7v-18.7zM145.6 220.6h21.9v18.7h-21.9v-18.7z"/><path class="st7" d="M150.8 234.8h11.4v.8h-11.4v-.8z"/><path class="st15" d="M159.8 225.9h-6.5v1.6h2.4v6.5h1.6v-6.5h2.4v-1.6zM131.4 225.9h6.5v1.6h-2.4v1.6h-1.6v-1.6h-2.4v-1.6zm2.4 4.8v3.2h1.6v-3.2h-1.6z"/><path class="st7" d="M129 229.9h11.4v.8H129v-.8zM172.7 224.2h11.4v.8h-11.4v-.8z"/><path class="st15" d="M181.6 225.9h-6.5v1.6h2.4v6.5h1.6v-6.5h2.4v-1.6zM112.6 228.6l-2.8-2.8-1.1 1.1 2.8 2.8-2.8 2.8 1.1 1.1 2.8-2.8 2.8 2.8 1.1-1.1-2.8-2.8 2.8-2.8-1.1-1.1-2.8 2.8z"/></g></svg>