<svg version="1.1" id="Layer_1" xmlns="http://www.w3.org/2000/svg" xmlns:xlink="http://www.w3.org/1999/xlink" x="0" y="0" viewBox="0 0 222 106" style="enable-background:new 0 0 222 106" xml:space="preserve"><style>.st5{fill:#ebebeb}.st8{fill:#d9d9d9}</style><defs><path id="SVGID_1_" d="M3 0h215.3c1.7 0 3 1.3 3 3v99.5c0 1.7-1.3 3-3 3H3c-1.7 0-3-1.3-3-3V3c0-1.7 1.3-3 3-3z"/></defs><clipPath id="SVGID_00000044174928774744542900000008492764372002582663_"><use xlink:href="#SVGID_1_" style="overflow:visible"/></clipPath><g style="clip-path:url(#SVGID_00000044174928774744542900000008492764372002582663_)"><path d="M3 0h215.3c1.7 0 3 1.3 3 3v99.5c0 1.7-1.3 3-3 3H3c-1.7 0-3-1.3-3-3V3c0-1.7 1.3-3 3-3z" style="fill:#404040"/><path d="M10.4 41.2h201.1c.8 0 1.4.6 1.4 1.4v51.9c0 .8-.6 1.4-1.4 1.4H10.4c-.8.1-1.4-.6-1.4-1.3v-52c0-.8.6-1.4 1.4-1.4z" style="fill:#555070;stroke:#2b2b2b;stroke-width:.9442"/><path d="M18.9 51.6h7.6c.8 0 1.4.6 1.4 1.4v7.6c0 .8-.6 1.4-1.4 1.4h-7.6c-.8 0-1.4-.6-1.4-1.4V53c0-.8.6-1.4 1.4-1.4z" style="fill:#2b2b2b;stroke:#212121;stroke-width:.9442"/><path d="m18.4 56.8 2.7 2.8 5.8-6.1" style="fill:none;stroke:#a98dfc;stroke-width:1.8884"/><path class="st5" d="M40.6 56c-.1-.2-.2-.5-.3-.7-.1-.2-.3-.4-.5-.5l-.6-.3c-.2-.1-.5-.1-.8-.1-.4 0-.9.1-1.2.3-.4.2-.7.6-.9 1-.2.5-.3 1-.3 1.7s.1 1.2.3 1.7c.2.4.5.8.9 1 .4.2.8.3 1.3.3.4 0 .8-.1 1.1-.3.3-.2.6-.5.8-.8.2-.3.3-.7.3-1.2l.3.1h-2.3v-.8h2.9v.8c0 .6-.1 1.2-.4 1.6-.3.5-.6.8-1.1 1.1-.5.3-1 .4-1.6.4-.7 0-1.3-.2-1.8-.5s-.9-.8-1.2-1.3c-.3-.6-.4-1.3-.4-2.1 0-.6.1-1.1.2-1.6.2-.5.4-.9.7-1.2.3-.3.6-.6 1-.8.4-.2.8-.3 1.3-.3.4 0 .8.1 1.1.2.3.1.7.3.9.5.3.2.5.5.7.8.2.3.3.6.4 1h-.8zm4.8 5.3c-.5 0-1-.1-1.4-.4-.4-.2-.7-.6-.9-1-.2-.4-.3-.9-.3-1.5s.1-1.1.3-1.5c.2-.4.5-.8.9-1 .4-.3.8-.4 1.3-.4.3 0 .6 0 .9.1.3.1.5.3.8.5.2.2.4.5.6.9.1.4.2.8.2 1.3v.4h-4.4v-.8h3.5c0-.3-.1-.6-.2-.9-.1-.3-.3-.4-.5-.6-.2-.1-.5-.2-.8-.2-.3 0-.6.1-.9.3-.3.2-.4.4-.6.7-.1.3-.2.6-.2.9v.5c0 .4.1.8.2 1.1.1.3.4.5.6.7.3.2.6.2.9.2.2 0 .4 0 .6-.1.2-.1.3-.2.5-.3.1-.1.2-.3.3-.5l.8.2c-.1.3-.2.5-.4.8-.2.2-.5.4-.8.5-.3 0-.6.1-1 .1zm6.1-5.8v.7h-2.9v-.7h2.9zm-2.1-1.4h.9v5.4c0 .2 0 .4.1.6.1.1.2.2.3.2.1 0 .2.1.4.1H51.4l.2.8c-.1 0-.1 0-.2.1H51c-.2 0-.5-.1-.7-.2-.2-.1-.4-.3-.6-.5-.2-.2-.2-.5-.2-.8v-5.7zm8.8 1.4v.7h-2.9v-.7h2.9zm-2.1-1.4h.9v5.4c0 .2 0 .4.1.6.1.1.2.2.3.2.1 0 .2.1.4.1H58.1l.2.8c-.1 0-.1 0-.2.1h-.4c-.2 0-.5-.1-.7-.2-.2-.1-.4-.3-.6-.5-.2-.2-.2-.5-.2-.8v-5.7zm5.7 7.2c-.5 0-1-.1-1.4-.4-.4-.2-.7-.6-.9-1-.2-.4-.3-.9-.3-1.5s.1-1.1.3-1.5c.2-.4.5-.8.9-1 .4-.3.8-.4 1.3-.4.3 0 .6 0 .9.1.3.1.5.3.8.5.2.2.4.5.6.9.1.4.2.8.2 1.3v.4h-4.4v-.8h3.5c0-.3-.1-.6-.2-.9-.1-.3-.3-.4-.5-.6-.2-.1-.5-.2-.8-.2-.3 0-.6.1-.9.3-.3.2-.4.4-.6.7-.1.3-.2.6-.2.9v.5c0 .4.1.8.2 1.1.2.3.4.5.6.7.3.2.6.2.9.2.2 0 .4 0 .6-.1.2-.1.3-.2.5-.3.1-.1.2-.3.3-.5l.8.2c-.1.3-.2.5-.4.8-.2.2-.5.4-.8.5-.2 0-.6.1-1 .1zm4.2-5.8 1.4 2.3 1.4-2.3h1L68 58.3l1.8 2.8h-1L67.4 59 66 61.2h-1l1.8-2.8-1.8-2.9h1zm7.4 0v.7h-2.9v-.7h2.9zm-2.1-1.4h.9v5.4c0 .2 0 .4.1.6.1.1.2.2.3.2.1 0 .2.1.4.1H73.3l.2.8c-.1 0-.1 0-.2.1h-.4c-.2 0-.5-.1-.7-.2-.2-.1-.4-.3-.6-.5-.2-.2-.2-.5-.2-.8v-5.7zm8.9 1.4v.7h-3.1v-.7h3.1zM78 61.2v-6.4c0-.3.1-.6.2-.8.2-.2.4-.4.6-.5.2-.1.5-.2.8-.2.2 0 .4 0 .5.1.1 0 .2.1.3.1l-.3.8s-.1 0-.2-.1h-.3c-.3 0-.5.1-.6.2-.1.1-.2.4-.2.6v6.2H78zm3.4 0v-5.7h.8v.9h.1c.1-.3.3-.5.6-.7.3-.2.6-.3.9-.3h.4v.9h-.5c-.3 0-.5.1-.7.2-.2.1-.4.3-.5.5-.1.2-.2.4-.2.7v3.6h-.9zm6 .1c-.5 0-1-.1-1.3-.4-.4-.2-.7-.6-.9-1-.2-.4-.3-.9-.3-1.5s.1-1.1.3-1.5c.2-.4.5-.8.9-1 .4-.2.8-.4 1.3-.4s1 .1 1.3.4c.4.2.7.6.9 1 .2.4.3 1 .3 1.5 0 .6-.1 1.1-.3 1.5-.2.4-.5.8-.9 1-.4.3-.8.4-1.3.4zm0-.8c.4 0 .7-.1 1-.3.3-.2.4-.5.6-.8.1-.3.2-.7.2-1.1 0-.4-.1-.7-.2-1.1-.1-.3-.3-.6-.6-.8-.3-.2-.6-.3-1-.3s-.7.1-1 .3c-.3.2-.4.5-.6.8-.1.3-.2.7-.2 1.1 0 .4.1.7.2 1.1.1.3.3.6.6.8.3.2.6.3 1 .3zm3.9.7v-5.7h.8v.9h.1c.1-.3.3-.5.6-.7.3-.2.6-.3.9-.3.4 0 .7.1.9.3.3.2.4.4.6.7h.1c.1-.3.4-.5.7-.7.3-.2.6-.3 1-.3.5 0 .9.2 1.2.5.3.3.5.8.5 1.5v3.8h-.9v-3.8c0-.4-.1-.7-.3-.9-.2-.2-.5-.3-.8-.3-.4 0-.7.1-.9.4-.2.2-.3.5-.3.9v3.7h-.9v-3.9c0-.3-.1-.6-.3-.8-.2-.2-.5-.3-.8-.3-.2 0-.4.1-.6.2-.2.1-.4.3-.5.5-.1.2-.2.5-.2.7v3.5h-.9zM120.4 55c0-.3-.2-.5-.4-.7-.2-.2-.5-.2-.9-.2-.3 0-.5 0-.7.1-.2.1-.3.2-.4.3-.1.1-.1.3-.1.4 0 .1 0 .3.1.4l.3.3c.1.1.2.1.4.2.1.1.3.1.5.1l.7.2.9.3c.3.1.5.3.7.5.2.2.4.4.5.6.1.2.2.5.2.8 0 .5-.1.9-.4 1.2-.2.3-.6.6-1 .8-.4.2-1 .3-1.6.3-.6 0-1.1-.1-1.6-.3-.5-.2-.8-.5-1.1-.8-.3-.4-.4-.8-.4-1.4h1.5c0 .3.1.5.2.6.1.2.3.3.5.4.2.1.5.1.7.1.3 0 .5 0 .7-.1.2-.1.4-.2.5-.3.1-.1.2-.3.2-.5s-.1-.3-.2-.4c-.1-.1-.2-.2-.4-.3-.2-.1-.4-.2-.7-.2l-.8-.2c-.6-.2-1.1-.4-1.5-.7-.4-.3-.6-.8-.5-1.3 0-.5.1-.9.4-1.2.2-.3.6-.6 1-.8.4-.2.9-.3 1.5-.3s1 .1 1.5.3c.4.2.7.5 1 .8.2.3.4.7.4 1.2h-1.7zm5.3 5.5c-.6 0-1.1-.1-1.5-.4-.4-.2-.7-.6-1-1-.2-.4-.3-1-.3-1.5 0-.6.1-1.1.3-1.5.2-.4.5-.8 1-1 .4-.2.9-.4 1.5-.4s1.1.1 1.5.4c.4.2.7.6 1 1 .2.4.3.9.3 1.5s-.1 1.1-.3 1.5c-.2.4-.5.8-1 1-.5.3-.9.4-1.5.4zm0-1.2c.3 0 .5-.1.7-.2.2-.1.3-.4.4-.6.1-.3.1-.6.1-.9 0-.3 0-.6-.1-.9-.1-.3-.2-.5-.4-.6-.2-.1-.4-.2-.7-.2-.3 0-.5.1-.7.2-.2.1-.3.4-.4.6-.1.3-.1.6-.1.9 0 .3 0 .6.1.9.1.3.2.5.4.6.2.1.4.2.7.2zm5.4-6.5v7.6h-1.6v-7.6h1.6zM136 58v-3.3h1.6v5.7H136v-1c-.1.3-.3.6-.6.8-.3.2-.7.3-1.1.3-.4 0-.7-.1-1-.3-.3-.2-.5-.4-.7-.7-.2-.3-.2-.7-.2-1.1v-3.6h1.6V58c0 .3.1.6.3.8.2.2.4.3.7.3.2 0 .4 0 .5-.1.2-.1.3-.2.4-.4 0-.2.1-.4.1-.6zm5.8-3.3v1.2h-3.4v-1.2h3.4zm-2.6-1.3h1.6v5.3c0 .1 0 .3.1.3 0 .1.1.1.2.2h.7l.2 1.2c-.1 0-.2.1-.3.1-.1 0-.3.1-.5.1-.4 0-.7 0-1-.2-.3-.1-.5-.3-.7-.5-.2-.2-.2-.6-.2-.9v-5.6zm3.6 7v-5.7h1.6v5.7h-1.6zm.8-6.4c-.2 0-.4-.1-.6-.2-.2-.2-.3-.3-.3-.6 0-.2.1-.4.3-.6.2-.2.4-.2.6-.2.2 0 .4.1.6.2.2.2.3.3.3.6 0 .2-.1.4-.3.6-.2.1-.4.2-.6.2zm4.6 6.5c-.6 0-1.1-.1-1.5-.4-.4-.2-.7-.6-1-1-.2-.4-.3-1-.3-1.5 0-.6.1-1.1.3-1.5.2-.4.5-.8 1-1 .4-.2.9-.4 1.5-.4s1.1.1 1.5.4c.4.2.7.6 1 1 .2.4.3.9.3 1.5s-.1 1.1-.3 1.5c-.2.4-.5.8-1 1-.4.3-.9.4-1.5.4zm0-1.2c.3 0 .5-.1.7-.2.2-.1.3-.4.4-.6.1-.3.1-.6.1-.9 0-.3 0-.6-.1-.9-.1-.3-.2-.5-.4-.6-.2-.1-.4-.2-.7-.2-.3 0-.5.1-.7.2-.2.1-.3.4-.4.6-.1.3-.1.6-.1.9 0 .3 0 .6.1.9.1.3.2.5.4.6.2.1.5.2.7.2zm5.4-2.2v3.3H152v-5.7h1.5v1h.1c.1-.3.3-.6.6-.8.3-.2.7-.3 1.1-.3.4 0 .7.1 1 .3.3.2.5.4.7.7.2.3.2.7.2 1.1v3.6h-1.6V57c0-.3-.1-.6-.3-.8-.2-.2-.4-.3-.7-.3-.2 0-.4 0-.6.1-.2.1-.3.2-.4.4v.7zm9.6-.8-1.4.1c0-.1-.1-.2-.2-.3-.1-.1-.2-.2-.3-.2-.1-.1-.3-.1-.5-.1s-.4.1-.6.2c-.2.1-.3.2-.3.4 0 .1.1.2.2.3.1.1.3.2.6.2l1 .2c.6.1 1 .3 1.2.5.3.3.4.6.4 1s-.1.7-.3 1c-.2.3-.5.5-.9.7-.4.2-.8.2-1.3.2-.8 0-1.3-.2-1.8-.5-.4-.3-.7-.7-.8-1.3l1.5-.1c0 .2.2.4.3.5.2.1.4.2.7.2.3 0 .5-.1.7-.2.2-.1.3-.2.3-.4 0-.1-.1-.3-.2-.4-.1-.1-.3-.2-.5-.2l-1-.2c-.6-.1-1-.3-1.2-.6-.3-.3-.4-.6-.4-1s.1-.7.3-.9c.2-.3.5-.5.8-.6.4-.1.8-.2 1.3-.2.7 0 1.3.2 1.7.5.4.3.6.7.7 1.2zM108.1 57.4c-1.1 0-2.1-.2-2.9-.4-.3-.1-.6-.3-.9-.4v1.1c0 .7 1.7 1.4 3.8 1.4 2.1 0 3.8-.6 3.8-1.4v-1c-.3.2-.6.3-.9.4-.8.1-1.8.3-2.9.3zm0 2.8c-1.1 0-2.1-.2-2.9-.4-.3-.1-.6-.3-.9-.4v1c0 .7 1.7 1.4 3.8 1.4 2.1 0 3.8-.6 3.8-1.4v-1c-.3.2-.6.3-.9.4-.8.3-1.8.4-2.9.4zm0-7.9c-2.1 0-3.8.6-3.8 1.4v1.1c0 .8 1.7 1.4 3.8 1.4 2.1 0 3.8-.6 3.8-1.4v-1.1c0-.8-1.7-1.4-3.8-1.4z"/><path d="M17.9 69.5h186c.8 0 1.4.6 1.4 1.4V87c0 .8-.6 1.4-1.4 1.4h-186c-.8 0-1.4-.6-1.4-1.4V71c0-.8.7-1.5 1.4-1.5z" style="fill:#7d6fc7;stroke:#2b2b2b;stroke-width:.9442"/><path class="st5" d="M22.6 82.8v-7.6h.9v3.4h4v-3.4h.9v7.6h-.9v-3.4h-4v3.4h-.9zm10 .1c-.5 0-1-.1-1.4-.4-.4-.2-.7-.6-.9-1-.2-.4-.3-.9-.3-1.5s.1-1.1.3-1.5c.2-.4.5-.8.9-1 .4-.3.8-.4 1.3-.4.3 0 .6 0 .9.1.3.1.5.3.8.5.2.2.4.5.6.9.1.4.2.8.2 1.3v.4h-4.4v-.8H34c0-.3-.1-.6-.2-.9-.1-.3-.3-.4-.5-.6-.2-.1-.5-.2-.8-.2-.3 0-.6.1-.9.3-.3.2-.4.4-.6.7-.1.3-.2.6-.2.9v.5c0 .4.1.8.2 1.1.1.3.4.5.6.7.3.2.6.2.9.2.2 0 .4 0 .6-.1.2-.1.3-.2.5-.3.1-.1.2-.3.3-.5l.8.2c-.1.3-.2.5-.4.8-.2.2-.5.4-.8.5-.2 0-.5.1-.9.1zm5.3 0c-.4 0-.7-.1-1-.2-.3-.1-.5-.3-.7-.6-.2-.3-.3-.6-.3-.9 0-.3.1-.6.2-.8.1-.2.3-.4.5-.5.2-.1.4-.2.7-.3.3-.1.5-.1.8-.1.3 0 .6-.1.8-.1.2 0 .4-.1.5-.1.1-.1.2-.2.2-.3 0-.4-.1-.6-.3-.8-.2-.2-.5-.3-.9-.3s-.7.1-1 .3c-.2.2-.4.4-.5.6l-.8-.3c.1-.3.3-.6.6-.8.2-.2.5-.3.8-.4.3-.1.6-.1.9-.1.2 0 .4 0 .6.1.2 0 .5.1.7.3.2.1.4.3.6.6.1.3.2.6.2 1.1V83h-.9v-1c-.1.1-.2.3-.3.4-.1.1-.3.3-.5.4-.3.1-.6.1-.9.1zm.1-.8c.3 0 .6-.1.9-.2.2-.1.4-.3.5-.5.1-.2.2-.4.2-.7v-.8s-.1.1-.2.1-.3.1-.4.1c-.2 0-.3 0-.5.1h-.4c-.2 0-.4.1-.6.1-.2.1-.4.2-.5.3-.1.1-.2.3-.2.5 0 .3.1.5.3.7.3.3.6.3.9.3zm6.2.8c-.5 0-.9-.1-1.3-.4-.4-.2-.6-.6-.8-1-.2-.4-.3-1-.3-1.6 0-.6.1-1.1.3-1.5s.5-.8.9-1c.4-.2.8-.4 1.3-.4.4 0 .7.1.9.2.2.1.4.3.5.4.1.2.2.3.3.4v-2.8h.9v7.6H46v-.9h-.1c-.1.1-.2.2-.3.4-.1.2-.3.3-.5.4-.2.1-.5.2-.9.2zm.2-.8c.3 0 .6-.1.9-.3.2-.2.4-.4.5-.8.1-.3.2-.7.2-1.1 0-.4-.1-.8-.2-1.1-.1-.3-.3-.6-.5-.7-.2-.2-.5-.3-.9-.3s-.7.1-.9.3c-.2.2-.4.4-.5.8-.1.3-.2.7-.2 1.1 0 .4.1.8.2 1.1.1.3.3.6.6.8.1.1.4.2.8.2zm6.5.8c-.5 0-1-.1-1.4-.4-.4-.2-.7-.6-.9-1-.2-.4-.3-.9-.3-1.5s.1-1.1.3-1.5c.2-.4.5-.8.9-1 .4-.3.8-.4 1.3-.4.3 0 .6 0 .9.1.3.1.5.3.8.5.2.2.4.5.6.9.1.4.2.8.2 1.3v.4h-4.4v-.8h3.5c0-.3-.1-.6-.2-.9-.1-.3-.3-.4-.5-.6-.2-.1-.5-.2-.8-.2-.3 0-.6.1-.9.3-.3.2-.4.4-.6.7-.1.3-.2.6-.2.9v.5c0 .4.1.8.2 1.1.1.3.4.5.6.7.3.2.6.2.9.2.2 0 .4 0 .6-.1.2-.1.3-.2.5-.3.1-.1.2-.3.3-.5l.8.2c-.1.3-.2.5-.4.8-.2.2-.5.4-.8.5-.2 0-.6.1-1 .1zm3.7-.1v-5.7h.8v.9h.1c.1-.3.3-.5.6-.7.3-.2.6-.3.9-.3h.4v.9h-.5c-.3 0-.5.1-.7.2-.2.1-.4.3-.5.5-.1.2-.2.4-.2.7v3.6h-.9zm6.5-6.8v-.8h5.7v.8h-2.4v6.7h-.9V76h-2.4zm8.5 6.9c-.5 0-1-.1-1.4-.4-.4-.2-.7-.6-.9-1-.2-.4-.3-.9-.3-1.5s.1-1.1.3-1.5c.2-.4.5-.8.9-1 .4-.3.8-.4 1.3-.4.3 0 .6 0 .9.1.3.1.5.3.8.5.2.2.4.5.6.9.1.4.2.8.2 1.3v.4h-4.4v-.8h3.5c0-.3-.1-.6-.2-.9-.1-.3-.3-.4-.5-.6-.2-.1-.5-.2-.8-.2-.3 0-.6.1-.9.3-.3.2-.4.4-.6.7-.1.3-.2.6-.2.9v.5c0 .4.1.8.2 1.1.2.3.4.5.6.7.3.2.6.2.9.2.2 0 .4 0 .6-.1.2-.1.3-.2.5-.3.1-.1.2-.3.3-.5l.8.2c-.1.3-.2.5-.4.8-.2.2-.5.4-.8.5-.3 0-.6.1-1 .1zm4.2-5.8 1.4 2.3 1.4-2.3h1L75.7 80l1.8 2.8h-1l-1.4-2.2-1.4 2.2h-1l1.8-2.8-1.8-2.8h1.1zm7.4 0v.7h-2.9v-.7h2.9zm-2.1-1.3h.9v5.4c0 .2 0 .4.1.6.1.1.2.2.3.2.1 0 .2.1.4.1H81.1l.2.8c-.1 0-.1 0-.2.1h-.4c-.2 0-.5-.1-.7-.2-.2-.1-.4-.3-.6-.5-.2-.2-.2-.5-.2-.8v-5.7zM193.1 81.3l-3.3-3.8h6.6l-3.3 3.8z"/><path d="M0 .1h226.6v31.2H0V.1z" style="fill:#2b2b2b"/><path class="st8" d="M26.3 19.8h-2.8v-8.2h2.8c.8 0 1.5.2 2.1.5.6.3 1 .8 1.4 1.4.3.6.5 1.3.5 2.2 0 .9-.2 1.6-.5 2.2-.3.6-.8 1.1-1.4 1.4-.6.3-1.3.5-2.1.5zM25 18.5h1.2c.6 0 1.1-.1 1.4-.3.4-.2.7-.5.9-.9.2-.4.3-.9.3-1.6 0-.6-.1-1.2-.3-1.6-.2-.4-.5-.7-.9-.9-.4-.2-.8-.3-1.4-.3H25v5.6zm7.5 3.6h-.6c-.2 0-.3-.1-.4-.1l.3-1.1c.3.1.6.1.8 0 .2-.1.4-.3.5-.6l.1-.3-2.2-6.3h1.5l1.4 4.7h.1l1.4-4.7H37l-2.5 6.9c-.1.3-.3.6-.5.8-.2.2-.4.4-.7.5-.1.1-.4.2-.8.2zm7.1-6v3.6h-1.5v-6.2h1.4v1.1h.1c.1-.3.4-.6.7-.8.3-.2.7-.3 1.2-.3.4 0 .8.1 1.1.3.3.2.6.4.7.8.2.3.3.8.3 1.3v3.9h-1.5V16c0-.4-.1-.7-.3-1-.2-.2-.5-.4-.9-.4-.3 0-.5.1-.7.2-.2.1-.4.3-.5.5 0 .3-.1.5-.1.8zm7.2 3.8c-.4 0-.7-.1-1.1-.2-.3-.1-.6-.4-.7-.6-.2-.3-.3-.6-.3-1 0-.3.1-.6.2-.9.1-.2.3-.4.5-.5.2-.1.5-.2.8-.3.3-.1.6-.1.9-.2.4 0 .7-.1.9-.1.2 0 .4-.1.5-.1.1-.1.2-.2.2-.3 0-.3-.1-.5-.3-.7-.2-.2-.4-.2-.8-.2s-.6.1-.8.2c-.2.2-.3.3-.4.6l-1.4-.4c.1-.4.3-.7.5-.9.2-.3.5-.4.9-.6.4-.1.8-.2 1.2-.2.3 0 .6 0 .9.1.3.1.6.2.8.3l.6.6c.2.3.2.6.2 1v4.1h-1.4v-.8c-.1.2-.2.3-.4.5-.2.1-.4.3-.6.4-.3.1-.5.2-.9.2zm.4-1.1c.3 0 .5-.1.8-.2.2-.1.4-.3.5-.5.1-.2.2-.4.2-.6v-.7s-.1.1-.2.1-.2.1-.4.1c-.1 0-.3 0-.4.1h-.3c-.2 0-.4.1-.6.1-.2.1-.3.2-.4.3-.1.1-.1.3-.1.5 0 .3.1.5.3.6s.3.2.6.2zm4.4 1v-6.2H53v1.1c.1-.4.3-.6.6-.8.3-.2.7-.3 1.1-.3.4 0 .8.1 1.1.3.3.2.5.5.6.8h.1c.1-.3.4-.6.7-.8.3-.2.7-.3 1.2-.3.6 0 1 .2 1.4.5.4.4.5.9.5 1.6v4.1h-1.5v-3.9c0-.4-.1-.7-.3-.8-.2-.2-.5-.3-.7-.3-.4 0-.6.1-.8.3-.2.2-.3.5-.3.8v3.9h-1.4v-4c0-.3-.1-.6-.3-.8-.2-.2-.4-.3-.7-.3-.2 0-.4.1-.6.2-.2.1-.3.3-.4.4-.2.2-.3.4-.3.7v3.8h-1.4zm10.1 0v-6.2h1.5v6.2h-1.5zm.8-7.1c-.2 0-.4-.1-.6-.2-.2-.2-.2-.3-.2-.6 0-.2.1-.4.2-.6.2-.2.4-.2.6-.2.2 0 .4.1.6.2.2.2.2.3.2.6 0 .2-.1.4-.2.6-.2.1-.4.2-.6.2zm4.9 7.2c-.6 0-1.1-.1-1.6-.4-.4-.3-.8-.6-1-1.1-.2-.5-.4-1-.4-1.7 0-.6.1-1.2.4-1.7.2-.5.6-.9 1-1.1.4-.3 1-.4 1.6-.4.5 0 .9.1 1.3.3.4.2.7.4.9.8.2.3.4.7.4 1.2h-1.4c-.1-.3-.2-.5-.4-.7-.2-.2-.5-.3-.8-.3-.3 0-.6.1-.8.2-.2.2-.4.4-.5.7-.1.3-.2.7-.2 1.1 0 .4.1.8.2 1.1.1.3.3.5.5.7.2.2.5.2.8.2.2 0 .4 0 .6-.1.2-.1.3-.2.4-.4.1-.2.2-.3.2-.6H70c0 .4-.2.8-.4 1.2-.2.3-.5.6-.9.8-.3.1-.8.2-1.3.2zm11.2-6.1c0-.4-.2-.6-.5-.8-.3-.2-.6-.3-1.1-.3-.3 0-.6 0-.8.1-.2.1-.4.2-.5.4-.1.2-.2.3-.2.6 0 .2 0 .3.1.4l.3.3c.1.1.3.2.5.2s.3.1.5.1l.8.2.9.3c.3.1.5.3.8.5.2.2.4.4.5.7.1.3.2.6.2.9 0 .5-.1.9-.4 1.3-.2.4-.6.7-1.1.9-.5.2-1 .3-1.7.3-.6 0-1.2-.1-1.7-.3-.5-.2-.8-.5-1.1-.9-.3-.4-.4-.8-.4-1.4h1.5c0 .3.1.5.3.7.2.2.4.3.6.4.3.1.5.1.8.1.3 0 .6 0 .9-.1.2-.1.4-.2.6-.4.1-.2.2-.4.2-.6 0-.2-.1-.4-.2-.5-.1-.1-.3-.3-.5-.4-.2-.1-.5-.2-.8-.3l-.9-.2c-.7-.2-1.2-.4-1.6-.8-.4-.4-.6-.8-.6-1.4 0-.5.1-.9.4-1.3.3-.4.6-.6 1.1-.8.5-.2 1-.3 1.5-.3.6 0 1.1.1 1.5.3.4.2.8.5 1 .8.3.4.4.8.4 1.2h-1.3zm5.9-.2v1.1h-3.6v-1.1h3.6zm-2.7-1.5h1.5v5.8c0 .2 0 .3.1.5.1.1.1.2.2.2s.2.1.3.1h.4l.2 1.1c-.1 0-.2.1-.3.1-.1 0-.3.1-.5.1-.4 0-.7 0-1-.2-.3-.1-.5-.3-.7-.6-.2-.3-.3-.6-.2-1v-6.1zm4.8 10H86c-.2 0-.3-.1-.4-.1l.3-1.1c.3.1.6.1.8 0 .2-.1.4-.3.5-.6l.1-.3-2.2-6.3h1.5l1.4 4.7h.1l1.4-4.7h1.6l-2.5 6.9c-.1.3-.3.6-.5.8-.2.2-.4.4-.7.5-.1.1-.4.2-.8.2zm7.1-10.6v8.2h-1.5v-8.2h1.5zm4.2 8.4c-.6 0-1.2-.1-1.6-.4-.4-.3-.8-.6-1-1.1-.2-.5-.4-1-.4-1.7 0-.6.1-1.2.4-1.7.2-.5.6-.9 1-1.1.4-.3 1-.4 1.5-.4.4 0 .7.1 1.1.2.3.1.6.3.9.6.3.3.5.6.6 1 .2.4.2.9.2 1.4v.4h-5.1v-1h3.7c0-.3-.1-.5-.2-.7-.1-.2-.3-.4-.5-.5-.2-.1-.5-.2-.7-.2-.3 0-.6.1-.8.2-.2.1-.4.3-.5.6-.1.2-.2.5-.2.8v.7c0 .4.1.7.2.9.1.3.3.5.6.6.2.1.5.2.8.2.2 0 .4 0 .6-.1.2-.1.3-.2.4-.3.1-.1.2-.3.3-.4l1.4.2c-.1.4-.2.7-.5.9-.2.3-.5.5-.9.6-.4.2-.8.3-1.3.3zm11.4-6.1c0-.4-.2-.6-.5-.8-.3-.2-.6-.3-1.1-.3-.3 0-.6 0-.8.1-.2.1-.4.2-.5.4-.1.2-.2.3-.2.6 0 .2 0 .3.1.4l.3.3c.1.1.3.2.5.2.2.1.3.1.5.1l.8.2.9.3c.3.1.5.3.8.5.2.2.4.4.5.7.1.3.2.6.2.9 0 .5-.1.9-.4 1.3-.2.4-.6.7-1.1.9-.5.2-1 .3-1.7.3-.6 0-1.2-.1-1.7-.3-.5-.2-.8-.5-1.1-.9-.3-.4-.4-.8-.4-1.4h1.5c0 .3.1.5.3.7.2.2.4.3.6.4.3.1.5.1.8.1.3 0 .6 0 .9-.1.2-.1.4-.2.6-.4.1-.2.2-.4.2-.6 0-.2-.1-.4-.2-.5-.1-.1-.3-.3-.5-.4-.2-.1-.5-.2-.8-.3l-.9-.2c-.7-.2-1.2-.4-1.6-.8-.4-.4-.6-.8-.6-1.4 0-.5.1-.9.4-1.3.3-.4.6-.6 1.1-.8.5-.2 1-.3 1.5-.3.6 0 1.1.1 1.5.3.4.2.8.5 1 .8.3.4.4.8.4 1.2h-1.3zm5.5 6.1c-.6 0-1.2-.1-1.6-.4-.4-.3-.8-.6-1-1.1-.2-.5-.4-1-.4-1.7 0-.6.1-1.2.4-1.7.2-.5.6-.9 1-1.1.4-.3 1-.4 1.5-.4.4 0 .7.1 1.1.2.3.1.6.3.9.6.3.3.5.6.6 1 .2.4.2.9.2 1.4v.4h-5.1v-1h3.7c0-.3-.1-.5-.2-.7-.1-.2-.3-.4-.5-.5-.2-.1-.5-.2-.7-.2-.3 0-.6.1-.8.2-.2.1-.4.3-.5.6-.1.2-.2.5-.2.8v.7c0 .4.1.7.2.9.1.3.3.5.6.6.2.1.5.2.8.2.2 0 .4 0 .6-.1.2-.1.3-.2.4-.3.1-.1.2-.3.3-.4l1.4.2c-.1.4-.2.7-.5.9-.2.3-.5.5-.9.6-.4.2-.8.3-1.3.3zm7.1-6.3v1.1h-3.6v-1.1h3.6zm-2.7-1.5h1.5v5.8c0 .2 0 .3.1.5.1.1.1.2.2.2s.2.1.3.1h.4l.2 1.1c-.1 0-.2.1-.3.1-.1 0-.3.1-.5.1-.4 0-.7 0-1-.2-.3-.1-.5-.3-.7-.6-.2-.3-.3-.6-.2-1v-6.1zm7 1.5v1.1h-3.6v-1.1h3.6zm-2.7-1.5h1.5v5.8c0 .2 0 .3.1.5.1.1.1.2.2.2s.2.1.3.1h.4l.2 1.1c-.1 0-.2.1-.3.1-.1 0-.3.1-.5.1-.4 0-.7 0-1-.2-.3-.1-.5-.3-.7-.6-.2-.3-.3-.6-.2-1v-6.1zm3.9 7.7v-6.2h1.5v6.2h-1.5zm.7-7.1c-.2 0-.4-.1-.6-.2-.2-.2-.2-.3-.2-.6 0-.2.1-.4.2-.6.2-.2.4-.2.6-.2.2 0 .4.1.6.2.2.2.2.3.2.6 0 .2-.1.4-.2.6-.1.1-.3.2-.6.2zm3.7 3.4v3.6h-1.5v-6.2h1.4v1.1h.1c.1-.3.4-.6.7-.8.3-.2.7-.3 1.2-.3.4 0 .8.1 1.1.3.3.2.6.4.7.8.2.3.3.8.3 1.3v3.9h-1.5V16c0-.4-.1-.7-.3-1-.2-.2-.5-.4-.9-.4-.3 0-.5.1-.7.2-.2.1-.4.3-.5.5 0 .3-.1.5-.1.8zm8.2 6.1c-.5 0-1-.1-1.3-.2-.4-.1-.7-.3-.9-.6-.2-.2-.4-.5-.5-.8l1.3-.3c.1.1.1.2.3.3.1.1.3.2.5.3.2.1.4.1.7.1.4 0 .8-.1 1-.3.3-.2.4-.5.4-1v-1.2h-.1c-.1.2-.2.3-.3.5-.1.2-.3.3-.6.4-.2.1-.5.2-.9.2-.5 0-.9-.1-1.3-.3-.4-.2-.7-.6-.9-1-.2-.4-.3-1-.3-1.7s.1-1.3.3-1.7c.2-.5.5-.8.9-1.1.4-.2.8-.4 1.3-.4.4 0 .7.1.9.2.2.1.4.3.6.4.1.2.2.3.3.5h.1v-1h1.4v6.3c0 .5-.1.9-.4 1.3-.3.3-.6.6-1 .8-.5.2-1 .3-1.5.3zm0-3.7c.3 0 .6-.1.8-.2.2-.2.4-.4.5-.6.1-.3.2-.6.2-1s-.1-.7-.2-1c-.1-.3-.3-.5-.5-.7-.2-.2-.5-.2-.8-.2-.3 0-.6.1-.8.3-.2.2-.4.4-.5.7-.1.3-.2.6-.2 1s.1.7.2 1c.1.3.3.5.5.7.2-.1.4 0 .8 0zm9.2-3.3-1.3.1c0-.1-.1-.3-.2-.4-.1-.1-.2-.2-.4-.3-.2-.1-.3-.1-.6-.1s-.6.1-.8.2c-.2.1-.3.3-.3.5s.1.3.2.4c.1.1.4.2.7.3l1.1.2c.6.1 1 .3 1.3.6.3.3.4.6.4 1.1 0 .4-.1.7-.3 1-.2.3-.5.5-.9.7-.4.2-.9.2-1.4.2-.8 0-1.4-.2-1.8-.5-.5-.3-.7-.8-.8-1.3l1.4-.1c.1.3.2.5.4.6.2.1.5.2.8.2.3 0 .6-.1.8-.2.2-.1.3-.3.3-.5s-.1-.3-.2-.4c-.1-.1-.3-.2-.6-.3l-1.1-.2c-.6-.1-1-.3-1.3-.6-.3-.3-.4-.7-.4-1.1 0-.4.1-.7.3-1 .2-.3.5-.5.9-.7.4-.2.8-.2 1.3-.2.7 0 1.3.2 1.7.5.5.4.7.8.8 1.3zM8.5 13.5H16L12.2 18l-3.7-4.5z"/></g></svg>